<svg width="721" height="637" viewBox="0 0 721 637" fill="none" xmlns="http://www.w3.org/2000/svg">
<rect x="0.719727" width="608.28" height="548" rx="10" fill="#F9F9FF"/>
<g filter="url(#filter0_d_107_362)">
<g clip-path="url(#clip0_107_362)">
<g filter="url(#filter1_d_107_362)">
<rect x="76" y="75.0002" width="1241" height="774" rx="20" fill="white"/>
</g>
<rect x="76" y="197" width="1241" height="40" fill="#F5F5F5"/>
<rect x="123" y="118" width="26" height="36" rx="3" fill="#1D9C5A"/>
<rect x="170" y="118" width="177" height="15" rx="7.5" fill="#666666"/>
<rect x="170" y="147" width="24" height="10" rx="5" fill="#666666"/>
<rect x="210" y="147" width="24" height="10" rx="5" fill="#666666"/>
<rect x="250" y="147" width="24" height="10" rx="5" fill="#666666"/>
<rect x="290" y="147" width="41" height="10" rx="5" fill="#666666"/>
<rect x="347" y="147" width="41" height="10" rx="5" fill="#666666"/>
<rect x="404" y="147" width="41" height="10" rx="5" fill="#666666"/>
<rect x="461" y="147" width="41" height="10" rx="5" fill="#666666"/>
<rect x="518" y="147" width="81" height="10" rx="5" fill="#666666"/>
<line x1="76" y1="196.5" x2="1317" y2="196.5" stroke="#C2C2C2"/>
<line x1="76" y1="236.5" x2="1317" y2="236.5" stroke="#C2C2C2"/>
<line x1="76" y1="276.5" x2="1317" y2="276.5" stroke="#C2C2C2"/>
<line x1="76" y1="316.5" x2="1317" y2="316.5" stroke="#C2C2C2"/>
<line x1="76" y1="356.5" x2="1317" y2="356.5" stroke="#C2C2C2"/>
<line x1="76" y1="396.5" x2="1317" y2="396.5" stroke="#C2C2C2"/>
<line x1="76" y1="436.5" x2="1317" y2="436.5" stroke="#C2C2C2"/>
<line x1="76" y1="476.5" x2="1317" y2="476.5" stroke="#C2C2C2"/>
<line x1="76" y1="516.5" x2="1317" y2="516.5" stroke="#C2C2C2"/>
<line x1="76" y1="556.5" x2="1317" y2="556.5" stroke="#C2C2C2"/>
<line x1="76" y1="596.5" x2="1317" y2="596.5" stroke="#C2C2C2"/>
<line x1="76" y1="636.5" x2="1317" y2="636.5" stroke="#C2C2C2"/>
<line x1="605.5" y1="197" x2="605.5" y2="849" stroke="#C2C2C2"/>
<line x1="427.5" y1="197" x2="427.5" y2="849" stroke="#C2C2C2"/>
<line x1="249.5" y1="197" x2="249.5" y2="849" stroke="#C2C2C2"/>
</g>
<rect x="76.5" y="75.5" width="1240" height="773" rx="19.5" stroke="#CDCDCD" shape-rendering="crispEdges"/>
</g>
<defs>
<filter id="filter0_d_107_362" x="56" y="65" width="1281" height="814" filterUnits="userSpaceOnUse" color-interpolation-filters="sRGB">
<feFlood flood-opacity="0" result="BackgroundImageFix"/>
<feColorMatrix in="SourceAlpha" type="matrix" values="0 0 0 0 0 0 0 0 0 0 0 0 0 0 0 0 0 0 127 0" result="hardAlpha"/>
<feOffset dy="10"/>
<feGaussianBlur stdDeviation="10"/>
<feComposite in2="hardAlpha" operator="out"/>
<feColorMatrix type="matrix" values="0 0 0 0 0 0 0 0 0 0 0 0 0 0 0 0 0 0 0.12 0"/>
<feBlend mode="normal" in2="BackgroundImageFix" result="effect1_dropShadow_107_362"/>
<feBlend mode="normal" in="SourceGraphic" in2="effect1_dropShadow_107_362" result="shape"/>
</filter>
<filter id="filter1_d_107_362" x="36" y="59.0002" width="1321" height="854" filterUnits="userSpaceOnUse" color-interpolation-filters="sRGB">
<feFlood flood-opacity="0" result="BackgroundImageFix"/>
<feColorMatrix in="SourceAlpha" type="matrix" values="0 0 0 0 0 0 0 0 0 0 0 0 0 0 0 0 0 0 127 0" result="hardAlpha"/>
<feMorphology radius="40" operator="erode" in="SourceAlpha" result="effect1_dropShadow_107_362"/>
<feOffset dy="24"/>
<feGaussianBlur stdDeviation="40"/>
<feComposite in2="hardAlpha" operator="out"/>
<feColorMatrix type="matrix" values="0 0 0 0 0 0 0 0 0 0 0 0 0 0 0 0 0 0 0.25 0"/>
<feBlend mode="normal" in2="BackgroundImageFix" result="effect1_dropShadow_107_362"/>
<feBlend mode="normal" in="SourceGraphic" in2="effect1_dropShadow_107_362" result="shape"/>
</filter>
<clipPath id="clip0_107_362">
<rect x="76" y="75" width="1241" height="774" rx="20" fill="white"/>
</clipPath>
</defs>
</svg>
