<svg width="45" height="45" viewBox="0 0 45 45" fill="none" xmlns="http://www.w3.org/2000/svg">
<rect width="44.1818" height="44.1818" rx="9.81818" fill="#F2F1FA"/>
<path d="M11.0454 14.0154C11.0454 13.307 11.2942 12.7226 11.7917 12.2621C12.2893 11.8017 12.9361 11.5715 13.7321 11.5715C14.514 11.5715 15.1466 11.7981 15.6299 12.2515C16.1274 12.719 16.3762 13.3282 16.3762 14.0791C16.3762 14.7592 16.1346 15.3259 15.6512 15.7792C15.1537 16.2468 14.4998 16.4805 13.6895 16.4805H13.6682C12.8863 16.4805 12.2537 16.2468 11.7704 15.7792C11.2871 15.3117 11.0454 14.7237 11.0454 14.0154ZM11.3226 32.6104V18.4144H16.0564V32.6104H11.3226ZM18.6791 32.6104H23.4129V24.6836C23.4129 24.1877 23.4698 23.8052 23.5835 23.536C23.7825 23.0543 24.0846 22.647 24.4897 22.3141C24.8949 21.9811 25.4031 21.8147 26.0143 21.8147C27.6065 21.8147 28.4026 22.8843 28.4026 25.0236V32.6104H33.1363V24.4711C33.1363 22.3743 32.6388 20.784 31.6437 19.7001C30.6486 18.6163 29.3337 18.0744 27.6989 18.0744C25.8651 18.0744 24.4364 18.8607 23.4129 20.4333V20.4758H23.3916L23.4129 20.4333V18.4144H18.6791C18.7076 18.8678 18.7218 20.2775 18.7218 22.6435C18.7218 25.0095 18.7076 28.3318 18.6791 32.6104Z" fill="#8D8BA7"/>
<rect width="44.1818" height="44.1818" rx="9.81818" fill="#F2F1FA"/>
<path fill-rule="evenodd" clip-rule="evenodd" d="M11.0454 22.0909C11.0454 17.6787 11.0454 15.4726 12.0968 13.8836C12.5663 13.174 13.174 12.5663 13.8835 12.0968C15.4725 11.0455 17.6786 11.0455 22.0909 11.0455C26.5031 11.0455 28.7092 11.0455 30.2982 12.0968C31.0078 12.5663 31.6154 13.174 32.0849 13.8836C33.1363 15.4726 33.1363 17.6787 33.1363 22.0909C33.1363 26.5031 33.1363 28.7092 32.0849 30.2982C31.6154 31.0078 31.0078 31.6155 30.2982 32.085C28.7092 33.1364 26.5031 33.1364 22.0909 33.1364C17.6786 33.1364 15.4725 33.1364 13.8835 32.085C13.174 31.6155 12.5663 31.0078 12.0968 30.2982C11.0454 28.7092 11.0454 26.5031 11.0454 22.0909ZM27.8092 22.0912C27.8092 25.2494 25.249 27.8096 22.0909 27.8096C18.9327 27.8096 16.3725 25.2494 16.3725 22.0912C16.3725 18.9331 18.9327 16.3729 22.0909 16.3729C25.249 16.3729 27.8092 18.9331 27.8092 22.0912ZM22.0909 25.8749C24.1805 25.8749 25.8745 24.1809 25.8745 22.0912C25.8745 20.0016 24.1805 18.3076 22.0909 18.3076C20.0012 18.3076 18.3072 20.0016 18.3072 22.0912C18.3072 24.1809 20.0012 25.8749 22.0909 25.8749ZM28.035 17.4293C28.7771 17.4293 29.3786 16.8277 29.3786 16.0857C29.3786 15.3436 28.7771 14.742 28.035 14.742C27.2929 14.742 26.6914 15.3436 26.6914 16.0857C26.6914 16.8277 27.2929 17.4293 28.035 17.4293Z" fill="#8D8BA7"/>
</svg>
