<svg width="608" height="548" viewBox="0 0 608 548" fill="none" xmlns="http://www.w3.org/2000/svg">
<mask id="mask0_104_429" style="mask-type:alpha" maskUnits="userSpaceOnUse" x="0" y="0" width="608" height="548">
<rect width="608" height="548" rx="10" fill="#F9F9FF"/>
</mask>
<g mask="url(#mask0_104_429)">
<path fill-rule="evenodd" clip-rule="evenodd" d="M117.39 272.257C114.906 271.893 112.327 269.905 112.327 267.444V224.13C112.327 221.669 114.906 219.682 117.39 219.317V195.254C114.906 194.89 112.327 192.902 112.327 190.441V172.795C112.327 170.334 114.906 168.347 117.39 167.982V129.481C117.39 97.7667 143.052 71.729 176.453 71.729H431.267C464.667 71.729 490.33 97.7667 490.33 129.481V236.964C492.814 237.328 495.392 239.316 495.392 241.777V317.175C495.392 319.636 492.814 321.623 490.33 321.988V735.877C490.33 767.591 464.667 793.629 431.267 793.629H176.453C143.052 793.629 117.39 767.591 117.39 735.877V339.634C114.906 339.27 112.327 337.282 112.327 334.821V289.903C112.327 287.442 114.906 285.455 117.39 285.091V272.257Z" fill="#E7E6F2"/>
<path d="M117.89 272.257V271.825L117.462 271.762C116.317 271.594 115.142 271.049 114.259 270.263C113.377 269.478 112.827 268.492 112.827 267.444V224.13C112.827 223.083 113.377 222.097 114.259 221.311C115.142 220.526 116.317 219.98 117.462 219.812L117.89 219.749V219.317V195.254V194.822L117.462 194.759C116.317 194.591 115.142 194.046 114.259 193.261C113.377 192.475 112.827 191.489 112.827 190.441V172.795C112.827 171.747 113.377 170.762 114.259 169.976C115.142 169.191 116.317 168.645 117.462 168.477L117.89 168.414V167.982V129.481C117.89 98.048 143.323 72.229 176.453 72.229H431.267C464.396 72.229 489.83 98.048 489.83 129.481V236.964V237.396L490.257 237.459C491.402 237.627 492.578 238.172 493.46 238.958C494.343 239.743 494.892 240.729 494.892 241.777V317.175C494.892 318.223 494.343 319.209 493.46 319.994C492.578 320.779 491.402 321.325 490.257 321.493L489.83 321.556V321.988V735.877C489.83 767.31 464.396 793.129 431.267 793.129H176.453C143.323 793.129 117.89 767.31 117.89 735.877V339.634V339.202L117.462 339.139C116.317 338.971 115.142 338.426 114.259 337.641C113.377 336.855 112.827 335.869 112.827 334.821V289.903C112.827 288.856 113.377 287.87 114.259 287.084C115.142 286.299 116.317 285.753 117.462 285.585L117.89 285.523V285.091V272.257Z" stroke="#BCBACD"/>
<path fill-rule="evenodd" clip-rule="evenodd" d="M203.777 89.3753C207.253 89.3753 210.052 92.338 210.507 95.7836C211.571 103.845 215.828 116.647 232.141 116.647H375.579C391.891 116.647 396.149 103.845 397.213 95.7836C397.668 92.338 400.467 89.3753 403.942 89.3753H431.267C451.454 89.3753 471.767 110.313 471.767 129.481V735.877C471.767 755.045 451.454 775.982 431.267 775.982H176.453C156.266 775.982 135.953 755.045 135.953 735.877V129.481C135.953 110.313 156.266 89.3753 176.453 89.3753H203.777Z" fill="white"/>
<path fill-rule="evenodd" clip-rule="evenodd" d="M346.047 103.813C342.786 103.813 340.141 101.299 340.141 98.1985C340.141 95.0975 342.786 92.5837 346.047 92.5837C349.309 92.5837 351.954 95.0975 351.954 98.1985C351.954 101.299 349.309 103.813 346.047 103.813ZM283.61 95.7922H324.11C325.508 95.7922 326.641 96.8695 326.641 98.1985C326.641 99.5275 325.508 100.605 324.11 100.605H283.61C282.212 100.605 281.078 99.5275 281.078 98.1985C281.078 96.8695 282.212 95.7922 283.61 95.7922Z" fill="#ADABC3"/>
<g filter="url(#filter0_d_104_429)">
<rect x="201" y="254" width="206" height="267.285" rx="10.3" fill="white"/>
<rect x="201" y="254" width="206" height="267.285" rx="10.3" stroke="#D4D2E3"/>
<path d="M266.772 419.038C265.791 419.038 265.003 418.764 264.407 418.216C263.82 417.659 263.527 416.87 263.527 415.851H265.373C265.383 416.322 265.493 416.697 265.705 416.976C265.916 417.255 266.257 417.394 266.729 417.394C267.171 417.394 267.493 417.264 267.695 417.005C267.897 416.736 267.997 416.385 267.997 415.952V408.771H269.843V415.952C269.843 416.942 269.564 417.707 269.007 418.245C268.459 418.774 267.714 419.038 266.772 419.038ZM275.196 419.038C274.504 419.038 273.879 418.879 273.322 418.562C272.774 418.245 272.336 417.808 272.01 417.25C271.692 416.683 271.534 416.029 271.534 415.289C271.534 414.549 271.697 413.9 272.024 413.342C272.351 412.775 272.788 412.333 273.336 412.015C273.894 411.698 274.519 411.54 275.211 411.54C275.893 411.54 276.509 411.698 277.057 412.015C277.614 412.333 278.051 412.775 278.369 413.342C278.696 413.9 278.859 414.549 278.859 415.289C278.859 416.029 278.696 416.683 278.369 417.25C278.051 417.808 277.614 418.245 277.057 418.562C276.499 418.879 275.879 419.038 275.196 419.038ZM275.196 417.437C275.677 417.437 276.095 417.26 276.451 416.904C276.807 416.539 276.984 416 276.984 415.289C276.984 414.577 276.807 414.044 276.451 413.688C276.095 413.323 275.682 413.14 275.211 413.14C274.72 413.14 274.297 413.323 273.942 413.688C273.596 414.044 273.423 414.577 273.423 415.289C273.423 416 273.596 416.539 273.942 416.904C274.297 417.26 274.716 417.437 275.196 417.437ZM280.509 418.865V408.483H282.355V412.809C282.595 412.414 282.917 412.107 283.321 411.886C283.735 411.655 284.206 411.54 284.734 411.54C285.619 411.54 286.301 411.818 286.782 412.376C287.272 412.934 287.517 413.751 287.517 414.827V418.865H285.686V415C285.686 414.385 285.561 413.914 285.311 413.587C285.071 413.26 284.686 413.097 284.158 413.097C283.638 413.097 283.206 413.28 282.86 413.645C282.523 414.01 282.355 414.52 282.355 415.173V418.865H280.509ZM289.282 418.865V411.713H290.912L291.056 412.924C291.277 412.501 291.594 412.164 292.008 411.915C292.431 411.665 292.926 411.54 293.493 411.54C294.377 411.54 295.065 411.818 295.555 412.376C296.045 412.934 296.291 413.751 296.291 414.827V418.865H294.445V415C294.445 414.385 294.32 413.914 294.07 413.587C293.82 413.26 293.431 413.097 292.902 413.097C292.383 413.097 291.955 413.28 291.618 413.645C291.292 414.01 291.128 414.52 291.128 415.173V418.865H289.282ZM306.106 419.038C305.087 419.038 304.212 418.822 303.481 418.389C302.751 417.947 302.188 417.336 301.794 416.558C301.4 415.769 301.203 414.861 301.203 413.832C301.203 412.804 301.4 411.895 301.794 411.107C302.188 410.319 302.751 409.703 303.481 409.261C304.212 408.819 305.087 408.598 306.106 408.598C307.317 408.598 308.307 408.901 309.076 409.506C309.855 410.102 310.341 410.944 310.533 412.03H308.5C308.375 411.482 308.106 411.054 307.692 410.747C307.288 410.429 306.75 410.271 306.077 410.271C305.145 410.271 304.414 410.588 303.885 411.222C303.357 411.857 303.092 412.727 303.092 413.832C303.092 414.938 303.357 415.808 303.885 416.442C304.414 417.067 305.145 417.38 306.077 417.38C306.75 417.38 307.288 417.236 307.692 416.947C308.106 416.649 308.375 416.241 308.5 415.721H310.533C310.341 416.76 309.855 417.572 309.076 418.158C308.307 418.745 307.317 419.038 306.106 419.038ZM314.589 419.038C313.974 419.038 313.469 418.942 313.075 418.75C312.681 418.548 312.388 418.283 312.196 417.957C312.003 417.63 311.907 417.269 311.907 416.875C311.907 416.212 312.167 415.673 312.686 415.26C313.205 414.847 313.984 414.64 315.022 414.64H316.839V414.467C316.839 413.977 316.699 413.616 316.421 413.385C316.142 413.155 315.796 413.039 315.382 413.039C315.007 413.039 314.681 413.131 314.402 413.313C314.123 413.486 313.95 413.746 313.883 414.092H312.08C312.128 413.573 312.301 413.121 312.599 412.736C312.907 412.352 313.301 412.059 313.782 411.857C314.262 411.645 314.801 411.54 315.397 411.54C316.416 411.54 317.219 411.794 317.805 412.304C318.391 412.813 318.685 413.534 318.685 414.467V418.865H317.113L316.94 417.711C316.728 418.096 316.43 418.413 316.046 418.663C315.671 418.913 315.185 419.038 314.589 419.038ZM315.007 417.596C315.536 417.596 315.945 417.423 316.233 417.077C316.531 416.731 316.719 416.303 316.796 415.794H315.224C314.733 415.794 314.383 415.885 314.171 416.068C313.96 416.241 313.854 416.457 313.854 416.716C313.854 416.995 313.96 417.211 314.171 417.365C314.383 417.519 314.661 417.596 315.007 417.596ZM320.446 418.865V411.713H322.09L322.263 413.054C322.522 412.592 322.873 412.227 323.316 411.958C323.767 411.679 324.296 411.54 324.902 411.54V413.486H324.383C323.979 413.486 323.618 413.549 323.301 413.674C322.984 413.799 322.734 414.015 322.551 414.323C322.378 414.63 322.292 415.058 322.292 415.606V418.865H320.446ZM329.35 418.865C328.6 418.865 327.999 418.682 327.548 418.317C327.096 417.952 326.87 417.303 326.87 416.37V413.256H325.644V411.713H326.87L327.086 409.795H328.716V411.713H330.648V413.256H328.716V416.385C328.716 416.731 328.788 416.971 328.932 417.106C329.086 417.231 329.345 417.293 329.711 417.293H330.605V418.865H329.35ZM335.525 419.038C334.804 419.038 334.164 418.884 333.607 418.577C333.049 418.269 332.612 417.836 332.295 417.279C331.977 416.721 331.819 416.077 331.819 415.347C331.819 414.606 331.973 413.948 332.28 413.371C332.598 412.794 333.03 412.347 333.578 412.03C334.136 411.703 334.789 411.54 335.539 411.54C336.241 411.54 336.861 411.693 337.399 412.001C337.938 412.309 338.356 412.732 338.654 413.27C338.962 413.799 339.115 414.39 339.115 415.044C339.115 415.149 339.111 415.26 339.101 415.375C339.101 415.491 339.096 415.611 339.087 415.736H333.65C333.689 416.293 333.881 416.731 334.227 417.048C334.583 417.365 335.01 417.524 335.51 417.524C335.885 417.524 336.198 417.442 336.448 417.279C336.707 417.106 336.899 416.885 337.024 416.615H338.899C338.764 417.067 338.539 417.481 338.221 417.856C337.914 418.221 337.529 418.509 337.068 418.721C336.616 418.932 336.102 419.038 335.525 419.038ZM335.539 413.039C335.087 413.039 334.688 413.169 334.342 413.429C333.996 413.679 333.775 414.063 333.679 414.582H337.241C337.212 414.111 337.039 413.736 336.722 413.457C336.404 413.179 336.01 413.039 335.539 413.039ZM340.668 418.865V411.713H342.312L342.485 413.054C342.744 412.592 343.095 412.227 343.537 411.958C343.989 411.679 344.518 411.54 345.124 411.54V413.486H344.604C344.201 413.486 343.84 413.549 343.523 413.674C343.206 413.799 342.956 414.015 342.773 414.323C342.6 414.63 342.513 415.058 342.513 415.606V418.865H340.668Z" fill="#5D5A88"/>
<path d="M272.427 434.654C272.032 434.654 271.672 434.577 271.348 434.423C271.029 434.264 270.774 434.02 270.581 433.69C270.389 433.36 270.293 432.94 270.293 432.429V428.787H270.985V432.437C270.985 432.998 271.12 433.404 271.389 433.657C271.658 433.91 272.01 434.036 272.444 434.036C272.878 434.036 273.226 433.91 273.49 433.657C273.754 433.404 273.886 432.998 273.886 432.437V428.787H274.578V432.429C274.578 432.94 274.482 433.36 274.289 433.69C274.097 434.02 273.839 434.264 273.515 434.423C273.191 434.577 272.828 434.654 272.427 434.654ZM275.453 434.555L277.217 431.646L275.453 428.787H276.236L277.653 431.094L279.005 428.787H279.779L278.016 431.679L279.787 434.555H279.005L277.579 432.24L276.236 434.555H275.453ZM280.328 435.338L282.396 428.26H283.08L281.012 435.338H280.328ZM286.01 434.654C285.615 434.654 285.255 434.577 284.931 434.423C284.612 434.264 284.357 434.02 284.164 433.69C283.972 433.36 283.876 432.94 283.876 432.429V428.787H284.568V432.437C284.568 432.998 284.703 433.404 284.972 433.657C285.241 433.91 285.593 434.036 286.027 434.036C286.461 434.036 286.81 433.91 287.073 433.657C287.337 433.404 287.469 432.998 287.469 432.437V428.787H288.161V432.429C288.161 432.94 288.065 433.36 287.872 433.69C287.68 434.02 287.422 434.264 287.098 434.423C286.774 434.577 286.411 434.654 286.01 434.654ZM289.333 434.555V428.787H290.025V434.555H289.333ZM293.429 434.555V428.787H295.2C296.217 428.787 296.964 429.045 297.442 429.562C297.925 430.078 298.167 430.787 298.167 431.688C298.167 432.572 297.925 433.272 297.442 433.789C296.964 434.3 296.217 434.555 295.2 434.555H293.429ZM294.121 433.978H295.184C295.744 433.978 296.189 433.888 296.519 433.706C296.854 433.52 297.093 433.256 297.236 432.915C297.379 432.569 297.45 432.16 297.45 431.688C297.45 431.204 297.379 430.789 297.236 430.443C297.093 430.097 296.854 429.831 296.519 429.644C296.189 429.457 295.744 429.364 295.184 429.364H294.121V433.978ZM300.963 434.654C300.573 434.654 300.226 434.566 299.924 434.39C299.622 434.209 299.383 433.959 299.207 433.641C299.037 433.322 298.952 432.946 298.952 432.512C298.952 432.083 299.037 431.71 299.207 431.391C299.378 431.067 299.614 430.817 299.916 430.641C300.224 430.46 300.578 430.369 300.979 430.369C301.375 430.369 301.715 430.46 302.001 430.641C302.292 430.817 302.514 431.05 302.668 431.342C302.822 431.633 302.899 431.946 302.899 432.281C302.899 432.341 302.896 432.402 302.891 432.462C302.891 432.523 302.891 432.591 302.891 432.668H299.636C299.652 432.981 299.724 433.242 299.85 433.451C299.982 433.654 300.144 433.808 300.336 433.912C300.534 434.017 300.743 434.069 300.963 434.069C301.248 434.069 301.487 434.003 301.679 433.871C301.872 433.739 302.012 433.561 302.1 433.336H302.784C302.674 433.715 302.462 434.031 302.149 434.283C301.842 434.53 301.446 434.654 300.963 434.654ZM300.963 430.954C300.633 430.954 300.339 431.056 300.081 431.259C299.828 431.457 299.683 431.748 299.644 432.133H302.215C302.199 431.765 302.072 431.476 301.836 431.267C301.6 431.059 301.309 430.954 300.963 430.954ZM305.382 434.654C304.893 434.654 304.487 434.53 304.162 434.283C303.838 434.036 303.649 433.701 303.594 433.278H304.303C304.347 433.492 304.459 433.679 304.64 433.838C304.827 433.992 305.077 434.069 305.39 434.069C305.681 434.069 305.896 434.009 306.033 433.888C306.17 433.761 306.239 433.613 306.239 433.443C306.239 433.196 306.148 433.031 305.967 432.948C305.791 432.866 305.541 432.792 305.217 432.726C304.997 432.682 304.778 432.619 304.558 432.536C304.338 432.454 304.154 432.339 304.006 432.19C303.858 432.036 303.783 431.836 303.783 431.589C303.783 431.232 303.915 430.941 304.179 430.715C304.448 430.485 304.811 430.369 305.267 430.369C305.701 430.369 306.055 430.479 306.33 430.699C306.61 430.913 306.772 431.221 306.816 431.622H306.132C306.104 431.413 306.014 431.251 305.86 431.136C305.712 431.015 305.511 430.954 305.258 430.954C305.011 430.954 304.819 431.006 304.682 431.111C304.55 431.215 304.484 431.353 304.484 431.523C304.484 431.688 304.569 431.817 304.739 431.91C304.915 432.004 305.151 432.083 305.448 432.149C305.701 432.204 305.94 432.273 306.165 432.355C306.396 432.432 306.582 432.55 306.725 432.709C306.873 432.863 306.948 433.088 306.948 433.385C306.953 433.753 306.813 434.058 306.527 434.3C306.247 434.536 305.865 434.654 305.382 434.654ZM308.357 429.562C308.219 429.562 308.104 429.518 308.011 429.43C307.923 429.337 307.879 429.221 307.879 429.084C307.879 428.952 307.923 428.842 308.011 428.754C308.104 428.666 308.219 428.622 308.357 428.622C308.488 428.622 308.601 428.666 308.694 428.754C308.788 428.842 308.835 428.952 308.835 429.084C308.835 429.221 308.788 429.337 308.694 429.43C308.601 429.518 308.488 429.562 308.357 429.562ZM308.011 434.555V430.468H308.703V434.555H308.011ZM311.523 433.27C311.292 433.27 311.081 433.24 310.888 433.179L310.476 433.566C310.537 433.61 310.611 433.649 310.699 433.682C310.792 433.709 310.924 433.737 311.094 433.764C311.265 433.786 311.504 433.811 311.811 433.838C312.361 433.877 312.753 434.003 312.99 434.217C313.226 434.432 313.344 434.712 313.344 435.058C313.344 435.294 313.278 435.519 313.146 435.733C313.02 435.948 312.822 436.124 312.553 436.261C312.289 436.398 311.949 436.467 311.531 436.467C311.163 436.467 310.836 436.417 310.551 436.319C310.265 436.225 310.042 436.08 309.883 435.882C309.724 435.69 309.644 435.445 309.644 435.148C309.644 434.995 309.685 434.827 309.768 434.646C309.85 434.47 310.004 434.302 310.229 434.143C310.108 434.094 310.004 434.042 309.916 433.987C309.834 433.926 309.757 433.86 309.685 433.789V433.599L310.386 432.907C310.062 432.633 309.9 432.27 309.9 431.819C309.9 431.55 309.963 431.306 310.089 431.086C310.216 430.866 310.4 430.693 310.641 430.567C310.883 430.435 311.177 430.369 311.523 430.369C311.759 430.369 311.973 430.402 312.166 430.468H313.674V430.987L312.907 431.02C313.067 431.251 313.146 431.517 313.146 431.819C313.146 432.089 313.08 432.333 312.948 432.553C312.822 432.773 312.638 432.948 312.396 433.08C312.16 433.207 311.869 433.27 311.523 433.27ZM311.523 432.701C311.814 432.701 312.045 432.627 312.215 432.479C312.391 432.325 312.479 432.105 312.479 431.819C312.479 431.539 312.391 431.325 312.215 431.177C312.045 431.023 311.814 430.946 311.523 430.946C311.226 430.946 310.99 431.023 310.814 431.177C310.644 431.325 310.559 431.539 310.559 431.819C310.559 432.105 310.644 432.325 310.814 432.479C310.99 432.627 311.226 432.701 311.523 432.701ZM310.32 435.083C310.32 435.357 310.435 435.56 310.666 435.692C310.897 435.83 311.185 435.898 311.531 435.898C311.872 435.898 312.144 435.824 312.347 435.676C312.556 435.527 312.66 435.33 312.66 435.083C312.66 434.907 312.589 434.753 312.446 434.621C312.303 434.495 312.039 434.421 311.655 434.399C311.353 434.377 311.092 434.349 310.872 434.316C310.647 434.437 310.498 434.566 310.427 434.703C310.356 434.846 310.32 434.973 310.32 435.083ZM314.454 434.555V430.468H315.081L315.122 431.201C315.254 430.943 315.443 430.74 315.69 430.592C315.938 430.443 316.218 430.369 316.531 430.369C317.014 430.369 317.399 430.518 317.684 430.814C317.976 431.105 318.121 431.556 318.121 432.166V434.555H317.429V432.24C317.429 431.388 317.077 430.963 316.374 430.963C316.023 430.963 315.729 431.092 315.493 431.35C315.262 431.603 315.147 431.965 315.147 432.437V434.555H314.454ZM321.392 434.555V428.787H322.084V434.003H324.77V434.555H321.392ZM327.34 434.654C326.95 434.654 326.604 434.566 326.302 434.39C326 434.209 325.761 433.959 325.585 433.641C325.415 433.322 325.33 432.946 325.33 432.512C325.33 432.083 325.415 431.71 325.585 431.391C325.755 431.067 325.992 430.817 326.294 430.641C326.601 430.46 326.956 430.369 327.357 430.369C327.752 430.369 328.093 430.46 328.378 430.641C328.67 430.817 328.892 431.05 329.046 431.342C329.2 431.633 329.277 431.946 329.277 432.281C329.277 432.341 329.274 432.402 329.268 432.462C329.268 432.523 329.268 432.591 329.268 432.668H326.014C326.03 432.981 326.102 433.242 326.228 433.451C326.36 433.654 326.522 433.808 326.714 433.912C326.912 434.017 327.121 434.069 327.34 434.069C327.626 434.069 327.865 434.003 328.057 433.871C328.249 433.739 328.389 433.561 328.477 433.336H329.161C329.051 433.715 328.84 434.031 328.527 434.283C328.219 434.53 327.824 434.654 327.34 434.654ZM327.34 430.954C327.011 430.954 326.717 431.056 326.459 431.259C326.206 431.457 326.06 431.748 326.022 432.133H328.593C328.576 431.765 328.45 431.476 328.214 431.267C327.977 431.059 327.686 430.954 327.34 430.954ZM331.554 434.654C331.213 434.654 330.93 434.596 330.705 434.481C330.48 434.366 330.312 434.212 330.202 434.02C330.092 433.827 330.038 433.619 330.038 433.393C330.038 432.976 330.197 432.654 330.515 432.429C330.834 432.204 331.268 432.091 331.817 432.091H332.922V432.042C332.922 431.685 332.828 431.416 332.641 431.234C332.455 431.048 332.205 430.954 331.892 430.954C331.622 430.954 331.389 431.023 331.191 431.16C330.999 431.292 330.878 431.487 330.829 431.745H330.12C330.147 431.449 330.246 431.199 330.417 430.995C330.592 430.792 330.809 430.638 331.068 430.534C331.326 430.424 331.6 430.369 331.892 430.369C332.463 430.369 332.891 430.523 333.177 430.831C333.468 431.133 333.614 431.537 333.614 432.042V434.555H332.996L332.954 433.822C332.839 434.053 332.669 434.25 332.444 434.415C332.224 434.574 331.927 434.654 331.554 434.654ZM331.661 434.069C331.924 434.069 332.15 434 332.336 433.863C332.529 433.726 332.674 433.547 332.773 433.327C332.872 433.108 332.922 432.877 332.922 432.635V432.627H331.875C331.469 432.627 331.18 432.698 331.01 432.841C330.845 432.979 330.763 433.152 330.763 433.36C330.763 433.575 330.84 433.748 330.993 433.879C331.153 434.006 331.375 434.069 331.661 434.069ZM336.506 434.654C336.1 434.654 335.742 434.561 335.435 434.374C335.133 434.187 334.896 433.932 334.726 433.608C334.561 433.283 334.479 432.915 334.479 432.503C334.479 432.091 334.564 431.726 334.734 431.407C334.905 431.083 335.141 430.831 335.443 430.649C335.745 430.463 336.102 430.369 336.514 430.369C336.849 430.369 337.146 430.438 337.404 430.575C337.662 430.713 337.863 430.905 338.006 431.152V428.622H338.698V434.555H338.072L338.006 433.879C337.874 434.077 337.684 434.256 337.437 434.415C337.19 434.574 336.88 434.654 336.506 434.654ZM336.58 434.053C336.855 434.053 337.097 433.989 337.305 433.863C337.52 433.731 337.684 433.55 337.8 433.319C337.921 433.088 337.981 432.819 337.981 432.512C337.981 432.204 337.921 431.935 337.8 431.704C337.684 431.473 337.52 431.295 337.305 431.169C337.097 431.037 336.855 430.971 336.58 430.971C336.311 430.971 336.069 431.037 335.855 431.169C335.646 431.295 335.482 431.473 335.361 431.704C335.245 431.935 335.188 432.204 335.188 432.512C335.188 432.819 335.245 433.088 335.361 433.319C335.482 433.55 335.646 433.731 335.855 433.863C336.069 433.989 336.311 434.053 336.58 434.053Z" fill="#8D8BA7"/>
<rect x="248.38" y="279.75" width="111.24" height="111.24" rx="55.62" fill="#F9F9FF"/>
<path d="M304.138 352.066C297.447 352.066 290.755 352.066 284.063 352.066C283.736 352.066 283.405 352.066 283.077 352.032C281.402 351.876 280.728 350.747 281.443 349.221C282.063 347.904 282.739 346.62 283.395 345.317C286.495 339.181 289.595 333.045 292.695 326.91C292.79 326.723 292.891 326.535 293.002 326.357C293.782 325.105 295.05 324.929 296.049 326.009C296.754 326.764 297.35 327.612 297.978 328.431C301.172 332.604 304.366 336.779 307.559 340.956C308.954 342.774 310.711 342.872 312.35 341.238C313.163 340.426 313.957 339.594 314.78 338.789C316.264 337.338 317.948 337.425 319.159 339.118C321.591 342.513 323.963 345.954 326.345 349.383C326.531 349.652 326.674 349.949 326.768 350.263C326.999 351.05 326.672 351.684 325.873 351.894C325.372 352.014 324.858 352.069 324.343 352.059C317.612 352.07 310.877 352.073 304.138 352.066Z" fill="#D4D2E3"/>
<path d="M319.145 318.441C319.144 319.751 318.753 321.031 318.023 322.118C317.293 323.206 316.257 324.052 315.045 324.55C313.834 325.048 312.502 325.174 311.218 324.914C309.934 324.654 308.757 324.019 307.835 323.088C306.912 322.158 306.287 320.975 306.038 319.689C305.789 318.403 305.928 317.072 306.436 315.865C306.945 314.658 307.8 313.629 308.894 312.909C309.988 312.188 311.271 311.809 312.581 311.819C314.325 311.841 315.99 312.548 317.218 313.786C318.446 315.025 319.138 316.697 319.145 318.441Z" fill="#D4D2E3"/>
<g clip-path="url(#clip0_104_429)">
<rect x="235.469" y="456.555" width="73.7346" height="14.7813" rx="7.39066" fill="#DBEAFE"/>
<path d="M244.414 461.522V460.73H248.576V461.522H246.963V465.946H246.026V461.522H244.414ZM250.502 466.022C250.109 466.022 249.771 465.941 249.485 465.778C249.202 465.613 248.984 465.381 248.831 465.08C248.678 464.778 248.602 464.422 248.602 464.013C248.602 463.611 248.678 463.257 248.831 462.953C248.985 462.648 249.201 462.41 249.478 462.24C249.755 462.069 250.08 461.983 250.453 461.983C250.694 461.983 250.922 462.022 251.136 462.1C251.351 462.177 251.542 462.296 251.706 462.457C251.873 462.618 252.003 462.824 252.099 463.073C252.194 463.321 252.241 463.617 252.241 463.959V464.242H249.035V463.621H251.357C251.356 463.444 251.317 463.287 251.243 463.15C251.168 463.01 251.064 462.901 250.929 462.821C250.797 462.741 250.643 462.701 250.466 462.701C250.277 462.701 250.112 462.747 249.969 462.839C249.827 462.929 249.715 463.048 249.636 463.195C249.558 463.341 249.518 463.502 249.516 463.677V464.219C249.516 464.447 249.558 464.642 249.641 464.805C249.724 464.966 249.84 465.09 249.99 465.177C250.139 465.262 250.314 465.304 250.514 465.304C250.648 465.304 250.77 465.286 250.879 465.248C250.987 465.209 251.081 465.152 251.161 465.078C251.241 465.003 251.301 464.91 251.342 464.8L252.203 464.897C252.149 465.124 252.045 465.323 251.892 465.493C251.741 465.661 251.548 465.792 251.312 465.885C251.076 465.977 250.806 466.022 250.502 466.022ZM254.728 466.022C254.337 466.022 254.002 465.937 253.722 465.765C253.443 465.594 253.228 465.357 253.077 465.055C252.928 464.751 252.853 464.401 252.853 464.005C252.853 463.608 252.929 463.257 253.082 462.953C253.235 462.648 253.451 462.41 253.729 462.24C254.009 462.069 254.34 461.983 254.722 461.983C255.04 461.983 255.321 462.042 255.565 462.159C255.812 462.274 256.008 462.438 256.154 462.65C256.3 462.861 256.383 463.107 256.403 463.389H255.522C255.486 463.201 255.402 463.043 255.267 462.918C255.135 462.79 254.958 462.727 254.735 462.727C254.547 462.727 254.381 462.778 254.239 462.88C254.096 462.98 253.985 463.124 253.905 463.313C253.827 463.501 253.788 463.727 253.788 463.99C253.788 464.257 253.827 464.486 253.905 464.678C253.983 464.868 254.093 465.015 254.233 465.118C254.376 465.22 254.543 465.271 254.735 465.271C254.871 465.271 254.992 465.246 255.099 465.195C255.208 465.142 255.299 465.067 255.372 464.968C255.445 464.87 255.495 464.75 255.522 464.609H256.403C256.381 464.886 256.3 465.131 256.159 465.345C256.018 465.557 255.826 465.724 255.583 465.844C255.34 465.963 255.055 466.022 254.728 466.022ZM258.082 463.654V465.946H257.16V460.73H258.062V462.699H258.108C258.2 462.478 258.341 462.304 258.533 462.177C258.727 462.048 258.973 461.983 259.272 461.983C259.543 461.983 259.78 462.04 259.982 462.154C260.184 462.268 260.341 462.434 260.451 462.653C260.563 462.872 260.619 463.139 260.619 463.455V465.946H259.697V463.598C259.697 463.335 259.629 463.13 259.493 462.984C259.359 462.836 259.171 462.762 258.928 462.762C258.765 462.762 258.619 462.798 258.49 462.869C258.363 462.939 258.262 463.04 258.189 463.173C258.118 463.305 258.082 463.465 258.082 463.654ZM267.843 462.49H266.891C266.864 462.334 266.813 462.195 266.74 462.075C266.667 461.953 266.577 461.849 266.468 461.764C266.359 461.679 266.235 461.616 266.096 461.573C265.959 461.529 265.81 461.507 265.65 461.507C265.367 461.507 265.116 461.578 264.897 461.721C264.678 461.862 264.506 462.069 264.382 462.342C264.258 462.614 264.196 462.946 264.196 463.338C264.196 463.737 264.258 464.073 264.382 464.347C264.508 464.618 264.679 464.824 264.897 464.963C265.116 465.1 265.366 465.169 265.648 465.169C265.804 465.169 265.95 465.149 266.086 465.108C266.223 465.066 266.347 465.004 266.455 464.922C266.566 464.841 266.658 464.741 266.733 464.622C266.809 464.503 266.862 464.367 266.891 464.214L267.843 464.219C267.808 464.467 267.73 464.7 267.612 464.917C267.494 465.134 267.341 465.326 267.151 465.493C266.96 465.657 266.738 465.786 266.483 465.88C266.229 465.972 265.946 466.017 265.635 466.017C265.177 466.017 264.768 465.911 264.408 465.699C264.048 465.487 263.764 465.18 263.557 464.78C263.35 464.379 263.246 463.898 263.246 463.338C263.246 462.776 263.351 462.296 263.559 461.897C263.768 461.496 264.053 461.189 264.413 460.977C264.773 460.765 265.18 460.659 265.635 460.659C265.925 460.659 266.195 460.699 266.445 460.781C266.695 460.862 266.917 460.982 267.112 461.14C267.308 461.296 267.468 461.488 267.594 461.716C267.721 461.942 267.804 462.2 267.843 462.49ZM270.374 466.022C269.992 466.022 269.661 465.938 269.381 465.77C269.101 465.602 268.883 465.367 268.729 465.065C268.576 464.763 268.5 464.409 268.5 464.005C268.5 463.601 268.576 463.247 268.729 462.943C268.883 462.639 269.101 462.403 269.381 462.235C269.661 462.067 269.992 461.983 270.374 461.983C270.756 461.983 271.087 462.067 271.368 462.235C271.648 462.403 271.864 462.639 272.017 462.943C272.171 463.247 272.249 463.601 272.249 464.005C272.249 464.409 272.171 464.763 272.017 465.065C271.864 465.367 271.648 465.602 271.368 465.77C271.087 465.938 270.756 466.022 270.374 466.022ZM270.379 465.284C270.586 465.284 270.76 465.227 270.899 465.113C271.038 464.998 271.142 464.843 271.21 464.65C271.279 464.456 271.314 464.24 271.314 464.003C271.314 463.763 271.279 463.547 271.21 463.353C271.142 463.158 271.038 463.003 270.899 462.887C270.76 462.772 270.586 462.714 270.379 462.714C270.167 462.714 269.991 462.772 269.85 462.887C269.71 463.003 269.606 463.158 269.536 463.353C269.468 463.547 269.434 463.763 269.434 464.003C269.434 464.24 269.468 464.456 269.536 464.65C269.606 464.843 269.71 464.998 269.85 465.113C269.991 465.227 270.167 465.284 270.379 465.284ZM273.953 463.654V465.946H273.031V462.034H273.912V462.699H273.958C274.048 462.48 274.192 462.306 274.389 462.177C274.587 462.048 274.833 461.983 275.125 461.983C275.395 461.983 275.63 462.041 275.83 462.156C276.032 462.272 276.189 462.439 276.299 462.658C276.411 462.877 276.466 463.143 276.464 463.455V465.946H275.542V463.598C275.542 463.336 275.475 463.132 275.339 462.984C275.205 462.836 275.019 462.762 274.781 462.762C274.62 462.762 274.476 462.798 274.351 462.869C274.227 462.939 274.129 463.04 274.058 463.173C273.988 463.305 273.953 463.465 273.953 463.654ZM280.494 463.068L279.653 463.16C279.629 463.075 279.588 462.995 279.528 462.92C279.471 462.846 279.392 462.785 279.294 462.74C279.196 462.694 279.075 462.671 278.932 462.671C278.74 462.671 278.579 462.712 278.448 462.796C278.319 462.879 278.256 462.987 278.257 463.119C278.256 463.233 278.297 463.325 278.382 463.397C278.469 463.468 278.611 463.527 278.81 463.572L279.477 463.715C279.848 463.795 280.123 463.921 280.303 464.094C280.484 464.268 280.576 464.494 280.578 464.774C280.576 465.021 280.504 465.238 280.361 465.426C280.22 465.613 280.024 465.759 279.773 465.865C279.522 465.97 279.233 466.022 278.907 466.022C278.428 466.022 278.043 465.922 277.751 465.722C277.459 465.52 277.285 465.239 277.229 464.879L278.128 464.792C278.168 464.969 278.255 465.102 278.387 465.192C278.52 465.282 278.692 465.327 278.904 465.327C279.123 465.327 279.299 465.282 279.432 465.192C279.566 465.102 279.633 464.991 279.633 464.859C279.633 464.746 279.589 464.654 279.503 464.581C279.418 464.508 279.286 464.452 279.106 464.413L278.438 464.273C278.063 464.195 277.785 464.063 277.605 463.878C277.425 463.691 277.336 463.455 277.338 463.17C277.336 462.929 277.402 462.72 277.534 462.543C277.668 462.365 277.854 462.228 278.092 462.131C278.331 462.032 278.607 461.983 278.92 461.983C279.378 461.983 279.739 462.081 280.002 462.276C280.267 462.471 280.431 462.735 280.494 463.068ZM283.831 464.301V462.034H284.753V465.946H283.859V465.251H283.819C283.73 465.47 283.585 465.649 283.383 465.788C283.183 465.927 282.936 465.997 282.642 465.997C282.385 465.997 282.159 465.94 281.962 465.826C281.767 465.711 281.614 465.544 281.503 465.325C281.393 465.104 281.338 464.837 281.338 464.525V462.034H282.26V464.382C282.26 464.63 282.328 464.827 282.464 464.973C282.599 465.119 282.778 465.192 282.998 465.192C283.134 465.192 283.266 465.159 283.393 465.093C283.521 465.027 283.625 464.928 283.706 464.797C283.79 464.665 283.831 464.499 283.831 464.301ZM286.623 460.73V465.946H285.701V460.73H286.623ZM289.525 462.034V462.747H287.276V462.034H289.525ZM287.831 461.097H288.753V464.769C288.753 464.893 288.772 464.988 288.809 465.055C288.848 465.119 288.899 465.163 288.962 465.187C289.025 465.211 289.094 465.223 289.171 465.223C289.229 465.223 289.281 465.218 289.329 465.21C289.378 465.202 289.415 465.194 289.441 465.187L289.596 465.908C289.547 465.925 289.476 465.943 289.385 465.964C289.295 465.984 289.184 465.996 289.054 466C288.823 466.006 288.615 465.972 288.43 465.895C288.245 465.817 288.098 465.696 287.989 465.533C287.882 465.37 287.829 465.167 287.831 464.922V461.097ZM290.296 465.946V462.034H291.218V465.946H290.296ZM290.759 461.479C290.613 461.479 290.488 461.43 290.382 461.334C290.277 461.235 290.225 461.117 290.225 460.98C290.225 460.84 290.277 460.722 290.382 460.626C290.488 460.527 290.613 460.478 290.759 460.478C290.907 460.478 291.033 460.527 291.136 460.626C291.242 460.722 291.294 460.84 291.294 460.98C291.294 461.117 291.242 461.235 291.136 461.334C291.033 461.43 290.907 461.479 290.759 461.479ZM293.088 463.654V465.946H292.166V462.034H293.047V462.699H293.093C293.183 462.48 293.326 462.306 293.523 462.177C293.722 462.048 293.967 461.983 294.259 461.983C294.529 461.983 294.765 462.041 294.965 462.156C295.167 462.272 295.323 462.439 295.434 462.658C295.546 462.877 295.601 463.143 295.599 463.455V465.946H294.677V463.598C294.677 463.336 294.609 463.132 294.473 462.984C294.339 462.836 294.153 462.762 293.916 462.762C293.754 462.762 293.611 462.798 293.485 462.869C293.361 462.939 293.264 463.04 293.192 463.173C293.123 463.305 293.088 463.465 293.088 463.654ZM298.238 467.495C297.907 467.495 297.622 467.45 297.384 467.36C297.147 467.271 296.956 467.152 296.811 467.003C296.667 466.854 296.567 466.688 296.511 466.506L297.341 466.305C297.379 466.382 297.433 466.457 297.504 466.532C297.575 466.608 297.671 466.671 297.792 466.72C297.914 466.771 298.068 466.797 298.253 466.797C298.514 466.797 298.731 466.733 298.902 466.606C299.074 466.48 299.16 466.273 299.16 465.984V465.243H299.114C299.066 465.338 298.997 465.436 298.905 465.536C298.815 465.636 298.695 465.72 298.546 465.788C298.398 465.856 298.212 465.89 297.988 465.89C297.688 465.89 297.415 465.82 297.171 465.679C296.928 465.536 296.734 465.324 296.59 465.042C296.447 464.758 296.376 464.403 296.376 463.977C296.376 463.548 296.447 463.185 296.59 462.89C296.734 462.593 296.929 462.368 297.173 462.215C297.418 462.06 297.69 461.983 297.991 461.983C298.22 461.983 298.408 462.022 298.556 462.1C298.705 462.177 298.824 462.269 298.913 462.378C299.001 462.485 299.068 462.586 299.114 462.681H299.165V462.034H300.074V466.01C300.074 466.344 299.994 466.621 299.835 466.84C299.675 467.059 299.457 467.223 299.18 467.332C298.903 467.44 298.589 467.495 298.238 467.495ZM298.245 465.167C298.441 465.167 298.607 465.119 298.744 465.024C298.882 464.929 298.986 464.792 299.058 464.614C299.129 464.436 299.165 464.222 299.165 463.972C299.165 463.726 299.129 463.51 299.058 463.325C298.988 463.14 298.885 462.997 298.747 462.895C298.611 462.791 298.444 462.74 298.245 462.74C298.04 462.74 297.868 462.793 297.731 462.9C297.593 463.007 297.49 463.154 297.42 463.341C297.35 463.526 297.316 463.736 297.316 463.972C297.316 464.212 297.35 464.421 297.42 464.601C297.491 464.78 297.596 464.919 297.733 465.019C297.873 465.117 298.043 465.167 298.245 465.167Z" fill="#1E40AF"/>
<rect x="313.166" y="456.555" width="60.7346" height="14.7813" rx="7.39066" fill="#DCFCE7"/>
<path d="M322.283 465.946V460.73H325.625V461.522H323.228V462.938H325.396V463.73H323.228V465.946H322.283ZM326.389 465.946V462.034H327.283V462.686H327.324C327.395 462.46 327.517 462.286 327.69 462.164C327.865 462.04 328.065 461.978 328.289 461.978C328.34 461.978 328.397 461.981 328.459 461.986C328.524 461.989 328.577 461.995 328.62 462.003V462.852C328.581 462.838 328.519 462.826 328.434 462.816C328.351 462.804 328.27 462.798 328.192 462.798C328.024 462.798 327.873 462.835 327.739 462.908C327.606 462.979 327.502 463.078 327.425 463.206C327.349 463.333 327.311 463.48 327.311 463.646V465.946H326.389ZM330.803 466.022C330.411 466.022 330.072 465.941 329.787 465.778C329.503 465.613 329.285 465.381 329.132 465.08C328.98 464.778 328.903 464.422 328.903 464.013C328.903 463.611 328.98 463.257 329.132 462.953C329.287 462.648 329.503 462.41 329.779 462.24C330.056 462.069 330.381 461.983 330.755 461.983C330.996 461.983 331.223 462.022 331.437 462.1C331.653 462.177 331.843 462.296 332.008 462.457C332.174 462.618 332.305 462.824 332.4 463.073C332.495 463.321 332.543 463.617 332.543 463.959V464.242H329.336V463.621H331.659C331.657 463.444 331.619 463.287 331.544 463.15C331.47 463.01 331.365 462.901 331.231 462.821C331.099 462.741 330.944 462.701 330.768 462.701C330.579 462.701 330.414 462.747 330.271 462.839C330.128 462.929 330.017 463.048 329.937 463.195C329.859 463.341 329.819 463.502 329.818 463.677V464.219C329.818 464.447 329.859 464.642 329.942 464.805C330.026 464.966 330.142 465.09 330.291 465.177C330.441 465.262 330.616 465.304 330.816 465.304C330.95 465.304 331.071 465.286 331.18 465.248C331.289 465.209 331.383 465.152 331.463 465.078C331.543 465.003 331.603 464.91 331.644 464.8L332.505 464.897C332.45 465.124 332.347 465.323 332.194 465.493C332.043 465.661 331.849 465.792 331.613 465.885C331.377 465.977 331.107 466.022 330.803 466.022ZM335.055 466.022C334.662 466.022 334.324 465.941 334.038 465.778C333.755 465.613 333.537 465.381 333.384 465.08C333.231 464.778 333.155 464.422 333.155 464.013C333.155 463.611 333.231 463.257 333.384 462.953C333.538 462.648 333.754 462.41 334.031 462.24C334.308 462.069 334.633 461.983 335.006 461.983C335.247 461.983 335.475 462.022 335.689 462.1C335.904 462.177 336.095 462.296 336.259 462.457C336.426 462.618 336.556 462.824 336.651 463.073C336.747 463.321 336.794 463.617 336.794 463.959V464.242H333.588V463.621H335.91C335.909 463.444 335.87 463.287 335.796 463.15C335.721 463.01 335.617 462.901 335.482 462.821C335.35 462.741 335.196 462.701 335.019 462.701C334.83 462.701 334.665 462.747 334.522 462.839C334.38 462.929 334.268 463.048 334.189 463.195C334.111 463.341 334.071 463.502 334.069 463.677V464.219C334.069 464.447 334.111 464.642 334.194 464.805C334.277 464.966 334.393 465.09 334.543 465.177C334.692 465.262 334.867 465.304 335.067 465.304C335.201 465.304 335.323 465.286 335.432 465.248C335.54 465.209 335.634 465.152 335.714 465.078C335.794 465.003 335.854 464.91 335.895 464.8L336.756 464.897C336.702 465.124 336.598 465.323 336.445 465.493C336.294 465.661 336.101 465.792 335.864 465.885C335.628 465.977 335.359 466.022 335.055 466.022ZM341.307 462.034V462.747H339.058V462.034H341.307ZM339.613 461.097H340.535V464.769C340.535 464.893 340.554 464.988 340.591 465.055C340.63 465.119 340.681 465.163 340.744 465.187C340.806 465.211 340.876 465.223 340.953 465.223C341.01 465.223 341.063 465.218 341.11 465.21C341.16 465.202 341.197 465.194 341.222 465.187L341.378 465.908C341.329 465.925 341.258 465.943 341.166 465.964C341.076 465.984 340.966 465.996 340.835 466C340.604 466.006 340.396 465.972 340.211 465.895C340.026 465.817 339.879 465.696 339.771 465.533C339.664 465.37 339.611 465.167 339.613 464.922V461.097ZM343.742 466.022C343.36 466.022 343.029 465.938 342.749 465.77C342.469 465.602 342.251 465.367 342.097 465.065C341.944 464.763 341.867 464.409 341.867 464.005C341.867 463.601 341.944 463.247 342.097 462.943C342.251 462.639 342.469 462.403 342.749 462.235C343.029 462.067 343.36 461.983 343.742 461.983C344.124 461.983 344.455 462.067 344.735 462.235C345.015 462.403 345.232 462.639 345.385 462.943C345.539 463.247 345.616 463.601 345.616 464.005C345.616 464.409 345.539 464.763 345.385 465.065C345.232 465.367 345.015 465.602 344.735 465.77C344.455 465.938 344.124 466.022 343.742 466.022ZM343.747 465.284C343.954 465.284 344.127 465.227 344.267 465.113C344.406 464.998 344.509 464.843 344.577 464.65C344.647 464.456 344.682 464.24 344.682 464.003C344.682 463.763 344.647 463.547 344.577 463.353C344.509 463.158 344.406 463.003 344.267 462.887C344.127 462.772 343.954 462.714 343.747 462.714C343.535 462.714 343.358 462.772 343.217 462.887C343.078 463.003 342.974 463.158 342.904 463.353C342.836 463.547 342.802 463.763 342.802 464.003C342.802 464.24 342.836 464.456 342.904 464.65C342.974 464.843 343.078 464.998 343.217 465.113C343.358 465.227 343.535 465.284 343.747 465.284ZM349.884 466.022C349.494 466.022 349.159 465.937 348.878 465.765C348.6 465.594 348.385 465.357 348.234 465.055C348.085 464.751 348.01 464.401 348.01 464.005C348.01 463.608 348.086 463.257 348.239 462.953C348.392 462.648 348.608 462.41 348.886 462.24C349.166 462.069 349.497 461.983 349.879 461.983C350.197 461.983 350.478 462.042 350.722 462.159C350.969 462.274 351.165 462.438 351.311 462.65C351.457 462.861 351.54 463.107 351.56 463.389H350.679C350.643 463.201 350.558 463.043 350.424 462.918C350.292 462.79 350.114 462.727 349.892 462.727C349.704 462.727 349.538 462.778 349.395 462.88C349.253 462.98 349.142 463.124 349.062 463.313C348.984 463.501 348.945 463.727 348.945 463.99C348.945 464.257 348.984 464.486 349.062 464.678C349.14 464.868 349.249 465.015 349.39 465.118C349.533 465.22 349.7 465.271 349.892 465.271C350.028 465.271 350.149 465.246 350.256 465.195C350.365 465.142 350.456 465.067 350.529 464.968C350.602 464.87 350.652 464.75 350.679 464.609H351.56C351.538 464.886 351.457 465.131 351.316 465.345C351.175 465.557 350.983 465.724 350.74 465.844C350.497 465.963 350.212 466.022 349.884 466.022ZM353.239 463.654V465.946H352.317V460.73H353.219V462.699H353.265C353.356 462.478 353.498 462.304 353.69 462.177C353.884 462.048 354.13 461.983 354.429 461.983C354.7 461.983 354.937 462.04 355.139 462.154C355.341 462.268 355.497 462.434 355.608 462.653C355.72 462.872 355.776 463.139 355.776 463.455V465.946H354.854V463.598C354.854 463.335 354.786 463.13 354.65 462.984C354.516 462.836 354.328 462.762 354.085 462.762C353.922 462.762 353.776 462.798 353.647 462.869C353.519 462.939 353.419 463.04 353.346 463.173C353.275 463.305 353.239 463.465 353.239 463.654ZM357.841 466.025C357.594 466.025 357.37 465.981 357.172 465.893C356.975 465.803 356.818 465.67 356.703 465.495C356.589 465.32 356.532 465.105 356.532 464.848C356.532 464.628 356.573 464.445 356.655 464.301C356.736 464.156 356.847 464.041 356.988 463.954C357.129 463.868 357.288 463.802 357.465 463.758C357.643 463.712 357.827 463.679 358.017 463.659C358.246 463.635 358.432 463.614 358.575 463.595C358.718 463.575 358.821 463.544 358.886 463.504C358.952 463.461 358.985 463.396 358.985 463.307V463.292C358.985 463.1 358.928 462.952 358.814 462.847C358.701 462.741 358.537 462.689 358.323 462.689C358.097 462.689 357.918 462.738 357.785 462.836C357.655 462.935 357.566 463.051 357.521 463.185L356.66 463.063C356.728 462.825 356.84 462.627 356.996 462.467C357.152 462.306 357.343 462.185 357.569 462.105C357.795 462.024 358.044 461.983 358.318 461.983C358.506 461.983 358.694 462.005 358.881 462.049C359.067 462.093 359.238 462.166 359.393 462.268C359.547 462.369 359.671 462.505 359.764 462.678C359.859 462.852 359.907 463.068 359.907 463.328V465.946H359.021V465.409H358.99C358.934 465.517 358.855 465.619 358.753 465.714C358.653 465.808 358.527 465.883 358.374 465.941C358.223 465.997 358.045 466.025 357.841 466.025ZM358.081 465.348C358.266 465.348 358.426 465.311 358.562 465.238C358.698 465.163 358.802 465.065 358.875 464.943C358.95 464.82 358.988 464.687 358.988 464.543V464.082C358.959 464.106 358.909 464.128 358.84 464.148C358.772 464.168 358.696 464.186 358.611 464.201C358.526 464.217 358.442 464.23 358.358 464.242C358.275 464.254 358.203 464.264 358.142 464.273C358.004 464.291 357.881 464.322 357.773 464.364C357.664 464.407 357.578 464.466 357.515 464.543C357.453 464.617 357.421 464.714 357.421 464.833C357.421 465.003 357.483 465.131 357.607 465.218C357.731 465.304 357.889 465.348 358.081 465.348ZM362.787 462.034V462.747H360.539V462.034H362.787ZM361.094 461.097H362.016V464.769C362.016 464.893 362.034 464.988 362.072 465.055C362.111 465.119 362.162 465.163 362.225 465.187C362.287 465.211 362.357 465.223 362.433 465.223C362.491 465.223 362.544 465.218 362.591 465.21C362.641 465.202 362.678 465.194 362.703 465.187L362.859 465.908C362.81 465.925 362.739 465.943 362.647 465.964C362.557 465.984 362.447 465.996 362.316 466C362.085 466.006 361.877 465.972 361.692 465.895C361.507 465.817 361.36 465.696 361.252 465.533C361.145 465.37 361.092 465.167 361.094 464.922V461.097ZM364.687 460.73L364.603 464.413H363.783L363.701 460.73H364.687ZM364.193 466.002C364.038 466.002 363.906 465.948 363.795 465.839C363.687 465.73 363.632 465.598 363.632 465.442C363.632 465.289 363.687 465.158 363.795 465.05C363.906 464.941 364.038 464.887 364.193 464.887C364.344 464.887 364.475 464.941 364.585 465.05C364.697 465.158 364.753 465.289 364.753 465.442C364.753 465.545 364.727 465.64 364.674 465.724C364.623 465.809 364.555 465.877 364.47 465.928C364.387 465.977 364.295 466.002 364.193 466.002Z" fill="#166534"/>
<rect x="221.126" y="476.876" width="103.735" height="14.7813" rx="7.39066" fill="#F3E8FF"/>
<path d="M233.09 482.484C233.066 482.262 232.966 482.089 232.789 481.965C232.614 481.841 232.387 481.779 232.107 481.779C231.91 481.779 231.741 481.808 231.6 481.868C231.459 481.927 231.351 482.008 231.276 482.11C231.202 482.212 231.163 482.328 231.162 482.459C231.162 482.567 231.186 482.662 231.236 482.741C231.287 482.821 231.355 482.889 231.442 482.945C231.528 483 231.624 483.045 231.73 483.083C231.835 483.12 231.941 483.152 232.048 483.177L232.537 483.299C232.734 483.345 232.923 483.407 233.105 483.485C233.288 483.563 233.452 483.662 233.597 483.781C233.743 483.899 233.858 484.043 233.943 484.211C234.028 484.379 234.07 484.576 234.07 484.802C234.07 485.108 233.992 485.377 233.836 485.609C233.68 485.84 233.454 486.021 233.158 486.152C232.865 486.281 232.509 486.345 232.091 486.345C231.686 486.345 231.333 486.282 231.034 486.157C230.737 486.031 230.505 485.848 230.337 485.607C230.17 485.366 230.08 485.072 230.067 484.725H230.996C231.01 484.907 231.066 485.058 231.164 485.179C231.263 485.299 231.391 485.389 231.549 485.449C231.708 485.508 231.887 485.538 232.084 485.538C232.289 485.538 232.469 485.507 232.624 485.446C232.78 485.383 232.902 485.297 232.99 485.186C233.079 485.074 233.124 484.944 233.125 484.794C233.124 484.658 233.084 484.546 233.006 484.458C232.928 484.368 232.818 484.293 232.677 484.234C232.538 484.173 232.375 484.118 232.188 484.071L231.595 483.918C231.165 483.808 230.826 483.641 230.576 483.416C230.328 483.191 230.204 482.891 230.204 482.517C230.204 482.21 230.287 481.941 230.454 481.71C230.622 481.479 230.85 481.3 231.139 481.173C231.427 481.044 231.754 480.979 232.119 480.979C232.49 480.979 232.814 481.044 233.092 481.173C233.372 481.3 233.592 481.477 233.752 481.705C233.912 481.931 233.994 482.191 233.999 482.484H233.09ZM236.578 486.343C236.196 486.343 235.865 486.259 235.585 486.091C235.305 485.923 235.088 485.687 234.933 485.385C234.78 485.083 234.704 484.73 234.704 484.326C234.704 483.922 234.78 483.568 234.933 483.264C235.088 482.96 235.305 482.724 235.585 482.556C235.865 482.387 236.196 482.303 236.578 482.303C236.96 482.303 237.291 482.387 237.572 482.556C237.852 482.724 238.068 482.96 238.221 483.264C238.376 483.568 238.453 483.922 238.453 484.326C238.453 484.73 238.376 485.083 238.221 485.385C238.068 485.687 237.852 485.923 237.572 486.091C237.291 486.259 236.96 486.343 236.578 486.343ZM236.583 485.604C236.791 485.604 236.964 485.547 237.103 485.434C237.242 485.318 237.346 485.164 237.414 484.97C237.483 484.776 237.518 484.561 237.518 484.323C237.518 484.084 237.483 483.867 237.414 483.674C237.346 483.478 237.242 483.323 237.103 483.208C236.964 483.092 236.791 483.034 236.583 483.034C236.371 483.034 236.195 483.092 236.054 483.208C235.914 483.323 235.81 483.478 235.74 483.674C235.672 483.867 235.639 484.084 235.639 484.323C235.639 484.561 235.672 484.776 235.74 484.97C235.81 485.164 235.914 485.318 236.054 485.434C236.195 485.547 236.371 485.604 236.583 485.604ZM240.942 486.343C240.551 486.343 240.216 486.257 239.936 486.086C239.657 485.914 239.442 485.677 239.291 485.375C239.142 485.071 239.067 484.721 239.067 484.326C239.067 483.928 239.144 483.578 239.296 483.274C239.449 482.968 239.665 482.73 239.943 482.561C240.224 482.389 240.555 482.303 240.937 482.303C241.254 482.303 241.535 482.362 241.78 482.479C242.026 482.595 242.222 482.758 242.368 482.971C242.514 483.181 242.597 483.427 242.618 483.709H241.736C241.701 483.521 241.616 483.364 241.482 483.238C241.349 483.111 241.172 483.047 240.949 483.047C240.761 483.047 240.595 483.098 240.453 483.2C240.31 483.3 240.199 483.444 240.119 483.633C240.041 483.821 240.002 484.047 240.002 484.31C240.002 484.577 240.041 484.806 240.119 484.998C240.197 485.188 240.307 485.335 240.448 485.439C240.59 485.54 240.758 485.591 240.949 485.591C241.085 485.591 241.207 485.566 241.314 485.515C241.422 485.462 241.513 485.387 241.586 485.288C241.659 485.19 241.709 485.07 241.736 484.929H242.618C242.596 485.206 242.514 485.451 242.373 485.665C242.232 485.878 242.04 486.044 241.797 486.164C241.555 486.283 241.269 486.343 240.942 486.343ZM243.375 486.266V482.354H244.297V486.266H243.375ZM243.838 481.799C243.692 481.799 243.566 481.751 243.461 481.654C243.356 481.555 243.303 481.437 243.303 481.3C243.303 481.161 243.356 481.043 243.461 480.946C243.566 480.847 243.692 480.798 243.838 480.798C243.986 480.798 244.112 480.847 244.215 480.946C244.32 481.043 244.373 481.161 244.373 481.3C244.373 481.437 244.32 481.555 244.215 481.654C244.112 481.751 243.986 481.799 243.838 481.799ZM246.37 486.345C246.122 486.345 245.899 486.301 245.701 486.213C245.504 486.123 245.347 485.99 245.232 485.816C245.118 485.641 245.061 485.425 245.061 485.169C245.061 484.948 245.102 484.765 245.184 484.621C245.265 484.477 245.376 484.361 245.517 484.275C245.658 484.188 245.817 484.123 245.993 484.079C246.172 484.033 246.356 484 246.546 483.979C246.775 483.955 246.961 483.934 247.104 483.916C247.247 483.895 247.35 483.865 247.415 483.824C247.481 483.781 247.514 483.716 247.514 483.628V483.613C247.514 483.421 247.457 483.272 247.343 483.167C247.23 483.062 247.066 483.009 246.852 483.009C246.626 483.009 246.447 483.058 246.314 483.157C246.184 483.255 246.095 483.371 246.049 483.506L245.189 483.383C245.257 483.146 245.369 482.947 245.525 482.787C245.681 482.626 245.872 482.505 246.098 482.426C246.324 482.344 246.573 482.303 246.847 482.303C247.035 482.303 247.223 482.325 247.41 482.37C247.596 482.414 247.767 482.487 247.921 482.589C248.076 482.689 248.2 482.826 248.293 482.999C248.388 483.172 248.436 483.388 248.436 483.648V486.266H247.55V485.729H247.519C247.463 485.838 247.384 485.94 247.282 486.035C247.182 486.128 247.055 486.204 246.903 486.261C246.752 486.317 246.574 486.345 246.37 486.345ZM246.61 485.668C246.795 485.668 246.955 485.631 247.091 485.558C247.227 485.484 247.331 485.385 247.404 485.263C247.479 485.141 247.516 485.007 247.516 484.863V484.402C247.488 484.426 247.438 484.448 247.369 484.468C247.301 484.489 247.224 484.506 247.14 484.522C247.055 484.537 246.971 484.551 246.887 484.562C246.804 484.574 246.732 484.585 246.671 484.593C246.533 484.612 246.41 484.642 246.302 484.685C246.193 484.727 246.107 484.787 246.044 484.863C245.982 484.938 245.95 485.035 245.95 485.153C245.95 485.323 246.012 485.451 246.136 485.538C246.26 485.625 246.418 485.668 246.61 485.668ZM250.285 481.05V486.266H249.363V481.05H250.285ZM253.053 486.266V481.05H256.445V481.842H253.998V483.259H256.269V484.051H253.998V485.474H256.466V486.266H253.053ZM260.863 482.354L259.47 486.266H258.451L257.058 482.354H258.041L258.94 485.26H258.981L259.882 482.354H260.863ZM263.1 486.343C262.707 486.343 262.369 486.261 262.083 486.098C261.8 485.934 261.582 485.701 261.429 485.4C261.276 485.098 261.2 484.742 261.2 484.333C261.2 483.931 261.276 483.578 261.429 483.274C261.583 482.968 261.799 482.73 262.076 482.561C262.352 482.389 262.678 482.303 263.051 482.303C263.292 482.303 263.52 482.342 263.734 482.421C263.949 482.497 264.139 482.616 264.304 482.777C264.471 482.938 264.601 483.144 264.696 483.393C264.791 483.641 264.839 483.937 264.839 484.28V484.562H261.633V483.941H263.955C263.954 483.764 263.915 483.607 263.841 483.47C263.766 483.331 263.662 483.221 263.527 483.141C263.395 483.062 263.24 483.022 263.064 483.022C262.875 483.022 262.71 483.067 262.567 483.159C262.425 483.249 262.313 483.368 262.234 483.516C262.155 483.662 262.116 483.822 262.114 483.997V484.54C262.114 484.767 262.155 484.962 262.239 485.125C262.322 485.287 262.438 485.411 262.588 485.497C262.737 485.582 262.912 485.625 263.112 485.625C263.246 485.625 263.368 485.606 263.476 485.569C263.585 485.529 263.679 485.473 263.759 485.398C263.839 485.323 263.899 485.231 263.94 485.12L264.801 485.217C264.746 485.445 264.643 485.643 264.49 485.813C264.339 485.981 264.145 486.112 263.909 486.205C263.673 486.297 263.403 486.343 263.1 486.343ZM266.541 483.974V486.266H265.619V482.354H266.5V483.019H266.546C266.636 482.8 266.78 482.626 266.976 482.497C267.175 482.368 267.42 482.303 267.713 482.303C267.983 482.303 268.218 482.361 268.418 482.477C268.62 482.592 268.776 482.759 268.887 482.978C268.999 483.197 269.054 483.463 269.052 483.776V486.266H268.13V483.918C268.13 483.657 268.062 483.452 267.926 483.304C267.792 483.157 267.606 483.083 267.369 483.083C267.207 483.083 267.064 483.118 266.938 483.19C266.814 483.259 266.717 483.36 266.645 483.493C266.576 483.625 266.541 483.786 266.541 483.974ZM271.943 482.354V483.067H269.694V482.354H271.943ZM270.249 481.417H271.171V485.09C271.171 485.214 271.19 485.309 271.227 485.375C271.266 485.439 271.317 485.484 271.38 485.507C271.443 485.531 271.512 485.543 271.589 485.543C271.647 485.543 271.699 485.539 271.747 485.53C271.796 485.522 271.833 485.514 271.859 485.507L272.014 486.228C271.965 486.245 271.895 486.264 271.803 486.284C271.713 486.305 271.602 486.316 271.472 486.32C271.241 486.327 271.033 486.292 270.848 486.215C270.663 486.137 270.516 486.017 270.407 485.854C270.3 485.691 270.248 485.487 270.249 485.243V481.417ZM275.75 483.388L274.909 483.48C274.886 483.395 274.844 483.315 274.785 483.241C274.727 483.166 274.649 483.106 274.55 483.06C274.452 483.014 274.331 482.991 274.189 482.991C273.997 482.991 273.835 483.033 273.705 483.116C273.576 483.199 273.512 483.307 273.514 483.439C273.512 483.553 273.554 483.646 273.638 483.717C273.725 483.788 273.868 483.847 274.066 483.893L274.734 484.035C275.104 484.115 275.379 484.242 275.559 484.415C275.74 484.588 275.832 484.815 275.834 485.095C275.832 485.341 275.76 485.558 275.617 485.747C275.476 485.934 275.28 486.08 275.029 486.185C274.778 486.29 274.489 486.343 274.163 486.343C273.684 486.343 273.299 486.243 273.007 486.042C272.715 485.84 272.541 485.559 272.485 485.199L273.384 485.113C273.425 485.289 273.511 485.422 273.644 485.512C273.776 485.602 273.948 485.647 274.161 485.647C274.38 485.647 274.555 485.602 274.688 485.512C274.822 485.422 274.889 485.311 274.889 485.179C274.889 485.067 274.846 484.974 274.759 484.901C274.674 484.828 274.542 484.772 274.362 484.733L273.695 484.593C273.319 484.515 273.042 484.383 272.862 484.198C272.682 484.012 272.593 483.776 272.594 483.49C272.593 483.249 272.658 483.04 272.79 482.864C272.925 482.685 273.11 482.548 273.348 482.451C273.588 482.353 273.863 482.303 274.176 482.303C274.634 482.303 274.995 482.401 275.258 482.596C275.523 482.792 275.687 483.056 275.75 483.388ZM282.879 482.81H281.926C281.899 482.654 281.849 482.516 281.776 482.395C281.703 482.273 281.612 482.169 281.503 482.084C281.395 481.999 281.271 481.936 281.131 481.893C280.994 481.849 280.845 481.827 280.686 481.827C280.402 481.827 280.151 481.898 279.932 482.041C279.713 482.182 279.541 482.389 279.417 482.663C279.293 482.934 279.231 483.266 279.231 483.658C279.231 484.057 279.293 484.394 279.417 484.667C279.543 484.939 279.714 485.144 279.932 485.283C280.151 485.421 280.401 485.49 280.683 485.49C280.839 485.49 280.985 485.469 281.121 485.428C281.259 485.386 281.382 485.324 281.49 485.243C281.601 485.161 281.693 485.061 281.768 484.942C281.844 484.823 281.897 484.687 281.926 484.534L282.879 484.54C282.843 484.787 282.766 485.02 282.647 485.237C282.53 485.455 282.376 485.647 282.186 485.813C281.996 485.978 281.773 486.107 281.519 486.2C281.264 486.292 280.981 486.338 280.67 486.338C280.212 486.338 279.803 486.232 279.443 486.019C279.083 485.807 278.799 485.501 278.592 485.1C278.385 484.699 278.281 484.219 278.281 483.658C278.281 483.096 278.386 482.616 278.595 482.217C278.804 481.816 279.088 481.51 279.448 481.297C279.808 481.085 280.215 480.979 280.67 480.979C280.961 480.979 281.231 481.02 281.48 481.101C281.73 481.183 281.952 481.303 282.148 481.46C282.343 481.617 282.503 481.808 282.629 482.036C282.756 482.262 282.839 482.52 282.879 482.81ZM285.409 486.343C285.027 486.343 284.696 486.259 284.416 486.091C284.136 485.923 283.919 485.687 283.764 485.385C283.611 485.083 283.535 484.73 283.535 484.326C283.535 483.922 283.611 483.568 283.764 483.264C283.919 482.96 284.136 482.724 284.416 482.556C284.696 482.387 285.027 482.303 285.409 482.303C285.792 482.303 286.123 482.387 286.403 482.556C286.683 482.724 286.899 482.96 287.052 483.264C287.207 483.568 287.284 483.922 287.284 484.326C287.284 484.73 287.207 485.083 287.052 485.385C286.899 485.687 286.683 485.923 286.403 486.091C286.123 486.259 285.792 486.343 285.409 486.343ZM285.415 485.604C285.622 485.604 285.795 485.547 285.934 485.434C286.073 485.318 286.177 485.164 286.245 484.97C286.314 484.776 286.349 484.561 286.349 484.323C286.349 484.084 286.314 483.867 286.245 483.674C286.177 483.478 286.073 483.323 285.934 483.208C285.795 483.092 285.622 483.034 285.415 483.034C285.202 483.034 285.026 483.092 284.885 483.208C284.746 483.323 284.641 483.478 284.572 483.674C284.504 483.867 284.47 484.084 284.47 484.323C284.47 484.561 284.504 484.776 284.572 484.97C284.641 485.164 284.746 485.318 284.885 485.434C285.026 485.547 285.202 485.604 285.415 485.604ZM288.067 486.266V482.354H288.948V483.019H288.994C289.075 482.795 289.21 482.62 289.399 482.494C289.587 482.367 289.812 482.303 290.073 482.303C290.338 482.303 290.562 482.368 290.743 482.497C290.927 482.624 291.056 482.798 291.13 483.019H291.171C291.258 482.802 291.404 482.629 291.609 482.5C291.816 482.369 292.062 482.303 292.345 482.303C292.705 482.303 292.999 482.417 293.226 482.645C293.454 482.872 293.568 483.204 293.568 483.641V486.266H292.643V483.783C292.643 483.54 292.579 483.363 292.45 483.251C292.321 483.137 292.163 483.08 291.976 483.08C291.754 483.08 291.579 483.15 291.454 483.289C291.33 483.427 291.268 483.606 291.268 483.826V486.266H290.364V483.745C290.364 483.543 290.303 483.382 290.18 483.261C290.06 483.14 289.902 483.08 289.707 483.08C289.574 483.08 289.454 483.114 289.345 483.182C289.236 483.248 289.15 483.343 289.085 483.465C289.021 483.585 288.988 483.726 288.988 483.888V486.266H288.067ZM294.503 486.266V482.354H295.384V483.019H295.43C295.512 482.795 295.647 482.62 295.835 482.494C296.024 482.367 296.249 482.303 296.51 482.303C296.775 482.303 296.998 482.368 297.18 482.497C297.363 482.624 297.492 482.798 297.567 483.019H297.608C297.694 482.802 297.84 482.629 298.046 482.5C298.253 482.369 298.498 482.303 298.782 482.303C299.142 482.303 299.436 482.417 299.663 482.645C299.891 482.872 300.004 483.204 300.004 483.641V486.266H299.08V483.783C299.08 483.54 299.015 483.363 298.886 483.251C298.757 483.137 298.599 483.08 298.413 483.08C298.19 483.08 298.016 483.15 297.89 483.289C297.766 483.427 297.705 483.606 297.705 483.826V486.266H296.8V483.745C296.8 483.543 296.739 483.382 296.617 483.261C296.496 483.14 296.339 483.08 296.143 483.08C296.011 483.08 295.89 483.114 295.782 483.182C295.673 483.248 295.586 483.343 295.522 483.465C295.457 483.585 295.425 483.726 295.425 483.888V486.266H294.503ZM300.94 486.266V482.354H301.862V486.266H300.94ZM301.403 481.799C301.257 481.799 301.132 481.751 301.026 481.654C300.921 481.555 300.868 481.437 300.868 481.3C300.868 481.161 300.921 481.043 301.026 480.946C301.132 480.847 301.257 480.798 301.403 480.798C301.551 480.798 301.677 480.847 301.78 480.946C301.885 481.043 301.938 481.161 301.938 481.3C301.938 481.437 301.885 481.555 301.78 481.654C301.677 481.751 301.551 481.799 301.403 481.799ZM304.763 482.354V483.067H302.514V482.354H304.763ZM303.069 481.417H303.991V485.09C303.991 485.214 304.01 485.309 304.047 485.375C304.087 485.439 304.137 485.484 304.2 485.507C304.263 485.531 304.333 485.543 304.409 485.543C304.467 485.543 304.52 485.539 304.567 485.53C304.616 485.522 304.654 485.514 304.679 485.507L304.834 486.228C304.785 486.245 304.715 486.264 304.623 486.284C304.533 486.305 304.423 486.316 304.292 486.32C304.061 486.327 303.853 486.292 303.668 486.215C303.483 486.137 303.336 486.017 303.227 485.854C303.12 485.691 303.068 485.487 303.069 485.243V481.417ZM307.488 482.354V483.067H305.239V482.354H307.488ZM305.794 481.417H306.716V485.09C306.716 485.214 306.735 485.309 306.772 485.375C306.811 485.439 306.862 485.484 306.925 485.507C306.988 485.531 307.057 485.543 307.134 485.543C307.191 485.543 307.244 485.539 307.292 485.53C307.341 485.522 307.378 485.514 307.404 485.507L307.559 486.228C307.51 486.245 307.439 486.264 307.348 486.284C307.258 486.305 307.147 486.316 307.017 486.32C306.786 486.327 306.578 486.292 306.393 486.215C306.207 486.137 306.061 486.017 305.952 485.854C305.845 485.691 305.792 485.487 305.794 485.243V481.417ZM309.949 486.343C309.556 486.343 309.218 486.261 308.932 486.098C308.649 485.934 308.431 485.701 308.278 485.4C308.125 485.098 308.049 484.742 308.049 484.333C308.049 483.931 308.125 483.578 308.278 483.274C308.432 482.968 308.648 482.73 308.925 482.561C309.202 482.389 309.527 482.303 309.9 482.303C310.141 482.303 310.369 482.342 310.583 482.421C310.798 482.497 310.989 482.616 311.153 482.777C311.32 482.938 311.45 483.144 311.545 483.393C311.641 483.641 311.688 483.937 311.688 484.28V484.562H308.482V483.941H310.804C310.803 483.764 310.764 483.607 310.69 483.47C310.615 483.331 310.511 483.221 310.376 483.141C310.244 483.062 310.09 483.022 309.913 483.022C309.724 483.022 309.559 483.067 309.416 483.159C309.274 483.249 309.162 483.368 309.083 483.516C309.005 483.662 308.965 483.822 308.963 483.997V484.54C308.963 484.767 309.005 484.962 309.088 485.125C309.171 485.287 309.287 485.411 309.437 485.497C309.586 485.582 309.761 485.625 309.961 485.625C310.095 485.625 310.217 485.606 310.326 485.569C310.434 485.529 310.528 485.473 310.608 485.398C310.688 485.323 310.748 485.231 310.789 485.12L311.65 485.217C311.596 485.445 311.492 485.643 311.339 485.813C311.188 485.981 310.995 486.112 310.758 486.205C310.522 486.297 310.253 486.343 309.949 486.343ZM314.2 486.343C313.808 486.343 313.469 486.261 313.184 486.098C312.9 485.934 312.682 485.701 312.529 485.4C312.376 485.098 312.3 484.742 312.3 484.333C312.3 483.931 312.376 483.578 312.529 483.274C312.684 482.968 312.899 482.73 313.176 482.561C313.453 482.389 313.778 482.303 314.152 482.303C314.393 482.303 314.62 482.342 314.834 482.421C315.05 482.497 315.24 482.616 315.405 482.777C315.571 482.938 315.702 483.144 315.797 483.393C315.892 483.641 315.939 483.937 315.939 484.28V484.562H312.733V483.941H315.056C315.054 483.764 315.016 483.607 314.941 483.47C314.866 483.331 314.762 483.221 314.628 483.141C314.495 483.062 314.341 483.022 314.164 483.022C313.976 483.022 313.81 483.067 313.668 483.159C313.525 483.249 313.414 483.368 313.334 483.516C313.256 483.662 313.216 483.822 313.214 483.997V484.54C313.214 484.767 313.256 484.962 313.339 485.125C313.422 485.287 313.539 485.411 313.688 485.497C313.837 485.582 314.012 485.625 314.213 485.625C314.347 485.625 314.468 485.606 314.577 485.569C314.686 485.529 314.78 485.473 314.86 485.398C314.939 485.323 315 485.231 315.04 485.12L315.901 485.217C315.847 485.445 315.743 485.643 315.591 485.813C315.439 485.981 315.246 486.112 315.01 486.205C314.774 486.297 314.504 486.343 314.2 486.343Z" fill="#6B21A8"/>
<rect x="329.303" y="476.876" width="55.7346" height="14.7813" rx="7.39066" fill="#FCE7F3"/>
<path d="M342.665 481.05V486.266H341.825L339.367 482.713H339.324V486.266H338.379V481.05H339.224L341.679 484.606H341.725V481.05H342.665ZM346.147 484.621V482.354H347.069V486.266H346.175V485.571H346.134C346.046 485.79 345.901 485.969 345.699 486.108C345.499 486.248 345.252 486.317 344.958 486.317C344.701 486.317 344.475 486.26 344.278 486.147C344.083 486.031 343.93 485.864 343.819 485.645C343.709 485.424 343.654 485.158 343.654 484.845V482.354H344.576V484.703C344.576 484.95 344.644 485.147 344.78 485.293C344.915 485.439 345.094 485.512 345.314 485.512C345.45 485.512 345.582 485.479 345.709 485.413C345.837 485.347 345.941 485.248 346.022 485.118C346.106 484.985 346.147 484.82 346.147 484.621ZM348.939 483.974V486.266H348.017V482.354H348.898V483.019H348.944C349.034 482.8 349.178 482.626 349.375 482.497C349.573 482.368 349.819 482.303 350.111 482.303C350.381 482.303 350.616 482.361 350.816 482.477C351.018 482.592 351.175 482.759 351.285 482.978C351.397 483.197 351.452 483.463 351.45 483.776V486.266H350.528V483.918C350.528 483.657 350.461 483.452 350.325 483.304C350.191 483.157 350.005 483.083 349.767 483.083C349.606 483.083 349.462 483.118 349.337 483.19C349.213 483.259 349.115 483.36 349.044 483.493C348.974 483.625 348.939 483.786 348.939 483.974ZM354.396 483.658C354.396 483.022 354.48 482.437 354.648 481.904C354.818 481.369 355.07 480.875 355.404 480.421H356.273C356.144 480.589 356.023 480.796 355.911 481.04C355.799 481.283 355.702 481.55 355.618 481.84C355.537 482.129 355.472 482.428 355.425 482.739C355.379 483.05 355.356 483.356 355.356 483.658C355.356 484.061 355.396 484.468 355.476 484.881C355.557 485.293 355.667 485.676 355.804 486.029C355.944 486.381 356.1 486.669 356.273 486.893H355.404C355.07 486.44 354.818 485.946 354.648 485.413C354.48 484.878 354.396 484.293 354.396 483.658ZM356.979 486.266V485.584L358.79 483.809C358.963 483.634 359.107 483.478 359.223 483.343C359.338 483.207 359.425 483.075 359.483 482.948C359.54 482.82 359.569 482.685 359.569 482.54C359.569 482.376 359.532 482.235 359.457 482.118C359.382 481.999 359.28 481.907 359.149 481.842C359.018 481.778 358.87 481.746 358.703 481.746C358.532 481.746 358.382 481.781 358.253 481.853C358.123 481.922 358.023 482.022 357.952 482.151C357.882 482.28 357.848 482.433 357.848 482.612H356.949C356.949 482.281 357.024 481.993 357.175 481.748C357.326 481.504 357.534 481.314 357.799 481.18C358.066 481.046 358.371 480.979 358.716 480.979C359.066 480.979 359.373 481.044 359.638 481.175C359.903 481.306 360.108 481.485 360.254 481.713C360.402 481.94 360.476 482.2 360.476 482.492C360.476 482.687 360.439 482.879 360.364 483.067C360.289 483.256 360.158 483.465 359.969 483.694C359.782 483.923 359.52 484.201 359.182 484.527L358.283 485.441V485.477H360.555V486.266H356.979ZM363.362 486.366C362.942 486.366 362.582 486.26 362.282 486.047C361.983 485.833 361.753 485.525 361.591 485.123C361.432 484.719 361.352 484.232 361.352 483.663C361.354 483.095 361.434 482.611 361.594 482.212C361.755 481.811 361.985 481.505 362.284 481.295C362.585 481.084 362.944 480.979 363.362 480.979C363.779 480.979 364.138 481.084 364.439 481.295C364.739 481.505 364.969 481.811 365.129 482.212C365.29 482.612 365.371 483.096 365.371 483.663C365.371 484.234 365.29 484.721 365.129 485.125C364.969 485.528 364.739 485.835 364.439 486.047C364.14 486.26 363.781 486.366 363.362 486.366ZM363.362 485.569C363.688 485.569 363.945 485.408 364.133 485.087C364.323 484.765 364.418 484.29 364.418 483.663C364.418 483.249 364.375 482.901 364.289 482.619C364.202 482.337 364.08 482.125 363.922 481.983C363.764 481.838 363.577 481.766 363.362 481.766C363.037 481.766 362.781 481.927 362.592 482.25C362.404 482.571 362.309 483.042 362.307 483.663C362.305 484.079 362.347 484.429 362.432 484.713C362.519 484.996 362.641 485.21 362.799 485.355C362.957 485.497 363.144 485.569 363.362 485.569ZM366.217 486.266V485.584L368.028 483.809C368.201 483.634 368.346 483.478 368.461 483.343C368.576 483.207 368.663 483.075 368.721 482.948C368.779 482.82 368.807 482.685 368.807 482.54C368.807 482.376 368.77 482.235 368.695 482.118C368.621 481.999 368.518 481.907 368.387 481.842C368.256 481.778 368.108 481.746 367.941 481.746C367.77 481.746 367.62 481.781 367.491 481.853C367.362 481.922 367.261 482.022 367.19 482.151C367.121 482.28 367.086 482.433 367.086 482.612H366.187C366.187 482.281 366.262 481.993 366.413 481.748C366.564 481.504 366.772 481.314 367.037 481.18C367.304 481.046 367.61 480.979 367.954 480.979C368.304 480.979 368.611 481.044 368.876 481.175C369.141 481.306 369.346 481.485 369.492 481.713C369.64 481.94 369.714 482.2 369.714 482.492C369.714 482.687 369.677 482.879 369.602 483.067C369.527 483.256 369.396 483.465 369.207 483.694C369.02 483.923 368.758 484.201 368.42 484.527L367.521 485.441V485.477H369.793V486.266H366.217ZM372.793 481.05V486.266H371.848V481.97H371.818L370.598 482.749V481.883L371.894 481.05H372.793ZM375.773 483.658C375.773 484.293 375.688 484.878 375.518 485.413C375.35 485.946 375.099 486.44 374.765 486.893H373.896C374.027 486.725 374.147 486.519 374.258 486.277C374.37 486.034 374.467 485.767 374.548 485.477C374.631 485.186 374.696 484.886 374.742 484.575C374.789 484.265 374.813 483.959 374.813 483.658C374.813 483.256 374.772 482.848 374.691 482.436C374.611 482.023 374.501 481.64 374.362 481.287C374.225 480.934 374.069 480.645 373.896 480.421H374.765C375.099 480.875 375.35 481.369 375.518 481.904C375.688 482.437 375.773 483.022 375.773 483.658Z" fill="#9D174D"/>
</g>
<circle cx="387.945" cy="275.115" r="4.635" fill="#A1ECBE"/>
</g>
<rect x="207" y="210" width="172" height="29.9896" rx="14.9948" fill="#F2F1FA"/>
<path d="M226.461 228.118C225.933 228.118 225.474 228.022 225.083 227.83C224.693 227.639 224.391 227.371 224.179 227.029C223.966 226.686 223.86 226.288 223.86 225.836H224.765C224.765 226.117 224.83 226.378 224.96 226.617C225.09 226.85 225.279 227.039 225.525 227.183C225.779 227.32 226.091 227.388 226.461 227.388C226.947 227.388 227.324 227.272 227.592 227.039C227.859 226.806 227.993 226.515 227.993 226.165C227.993 225.877 227.931 225.648 227.807 225.476C227.684 225.298 227.516 225.154 227.304 225.045C227.098 224.935 226.858 224.839 226.584 224.757C226.317 224.675 226.036 224.582 225.741 224.479C225.186 224.287 224.775 224.051 224.508 223.77C224.24 223.482 224.107 223.109 224.107 222.649C224.1 222.266 224.189 221.926 224.374 221.632C224.559 221.33 224.819 221.097 225.155 220.933C225.498 220.761 225.902 220.676 226.368 220.676C226.827 220.676 227.225 220.761 227.561 220.933C227.903 221.104 228.167 221.34 228.352 221.642C228.544 221.944 228.644 222.286 228.65 222.67H227.746C227.746 222.471 227.694 222.276 227.592 222.084C227.489 221.885 227.331 221.724 227.119 221.601C226.913 221.477 226.653 221.416 226.337 221.416C225.947 221.409 225.625 221.508 225.371 221.714C225.124 221.92 225.001 222.204 225.001 222.567C225.001 222.876 225.087 223.112 225.258 223.276C225.436 223.441 225.683 223.578 225.998 223.688C226.313 223.79 226.677 223.91 227.088 224.047C227.431 224.171 227.739 224.315 228.013 224.479C228.287 224.644 228.5 224.856 228.65 225.117C228.808 225.377 228.887 225.709 228.887 226.114C228.887 226.456 228.798 226.782 228.62 227.09C228.441 227.392 228.171 227.639 227.807 227.83C227.451 228.022 227.002 228.118 226.461 228.118ZM232.352 228.118C231.866 228.118 231.434 228.009 231.057 227.789C230.68 227.563 230.382 227.251 230.163 226.854C229.95 226.456 229.844 225.987 229.844 225.445C229.844 224.911 229.95 224.445 230.163 224.047C230.375 223.643 230.67 223.331 231.047 223.112C231.431 222.886 231.873 222.773 232.373 222.773C232.866 222.773 233.291 222.886 233.648 223.112C234.011 223.331 234.288 223.623 234.48 223.986C234.672 224.349 234.768 224.74 234.768 225.158C234.768 225.233 234.765 225.308 234.758 225.384C234.758 225.459 234.758 225.545 234.758 225.641H230.697C230.718 226.031 230.807 226.357 230.965 226.617C231.129 226.871 231.331 227.063 231.571 227.193C231.818 227.323 232.078 227.388 232.352 227.388C232.709 227.388 233.007 227.306 233.247 227.142C233.487 226.977 233.661 226.754 233.771 226.473H234.624C234.487 226.946 234.223 227.34 233.833 227.656C233.449 227.964 232.956 228.118 232.352 228.118ZM232.352 223.503C231.941 223.503 231.575 223.629 231.252 223.883C230.937 224.13 230.756 224.493 230.708 224.973H233.915C233.894 224.513 233.737 224.154 233.442 223.893C233.147 223.633 232.784 223.503 232.352 223.503ZM237.609 228.118C237.184 228.118 236.831 228.046 236.55 227.902C236.269 227.758 236.06 227.567 235.923 227.327C235.786 227.087 235.717 226.826 235.717 226.545C235.717 226.025 235.916 225.624 236.314 225.343C236.711 225.062 237.252 224.921 237.938 224.921H239.315V224.86C239.315 224.414 239.199 224.078 238.966 223.852C238.733 223.619 238.421 223.503 238.03 223.503C237.695 223.503 237.403 223.588 237.157 223.76C236.917 223.924 236.766 224.167 236.704 224.489H235.82C235.854 224.119 235.978 223.808 236.19 223.554C236.41 223.3 236.68 223.109 237.002 222.978C237.324 222.841 237.667 222.773 238.03 222.773C238.743 222.773 239.278 222.965 239.634 223.348C239.997 223.725 240.179 224.229 240.179 224.86V227.995H239.408L239.356 227.08C239.212 227.368 239 227.615 238.719 227.82C238.445 228.019 238.075 228.118 237.609 228.118ZM237.742 227.388C238.071 227.388 238.352 227.303 238.585 227.131C238.825 226.96 239.007 226.737 239.13 226.463C239.254 226.189 239.315 225.901 239.315 225.6V225.589H238.01C237.503 225.589 237.143 225.678 236.93 225.857C236.725 226.028 236.622 226.244 236.622 226.504C236.622 226.772 236.718 226.987 236.91 227.152C237.109 227.31 237.386 227.388 237.742 227.388ZM241.474 227.995V222.896H242.255L242.327 223.873C242.485 223.537 242.725 223.27 243.047 223.071C243.369 222.872 243.767 222.773 244.239 222.773V223.677H244.003C243.701 223.677 243.424 223.732 243.17 223.842C242.917 223.945 242.715 224.123 242.564 224.376C242.413 224.63 242.338 224.979 242.338 225.425V227.995H241.474ZM247.362 228.118C246.875 228.118 246.437 228.009 246.046 227.789C245.662 227.563 245.357 227.251 245.131 226.854C244.912 226.449 244.802 225.98 244.802 225.445C244.802 224.911 244.912 224.445 245.131 224.047C245.357 223.643 245.662 223.331 246.046 223.112C246.437 222.886 246.875 222.773 247.362 222.773C247.965 222.773 248.472 222.93 248.883 223.246C249.301 223.561 249.565 223.982 249.675 224.51H248.791C248.722 224.195 248.554 223.951 248.287 223.78C248.02 223.602 247.708 223.513 247.351 223.513C247.064 223.513 246.793 223.585 246.539 223.729C246.286 223.873 246.08 224.089 245.923 224.376C245.765 224.664 245.686 225.021 245.686 225.445C245.686 225.87 245.765 226.227 245.923 226.515C246.08 226.802 246.286 227.022 246.539 227.172C246.793 227.316 247.064 227.388 247.351 227.388C247.708 227.388 248.02 227.303 248.287 227.131C248.554 226.953 248.722 226.703 248.791 226.381H249.675C249.572 226.895 249.311 227.313 248.893 227.635C248.475 227.957 247.965 228.118 247.362 228.118ZM250.881 227.995V220.593H251.744V223.77C251.915 223.455 252.159 223.211 252.474 223.04C252.789 222.862 253.132 222.773 253.502 222.773C254.091 222.773 254.564 222.958 254.921 223.328C255.277 223.691 255.455 224.253 255.455 225.014V227.995H254.602V225.106C254.602 224.044 254.174 223.513 253.317 223.513C252.871 223.513 252.498 223.674 252.196 223.996C251.895 224.311 251.744 224.764 251.744 225.353V227.995H250.881ZM259.761 227.995V223.626H258.99V222.896H259.761V222.012C259.761 221.519 259.885 221.159 260.131 220.933C260.378 220.707 260.738 220.593 261.211 220.593H261.725V221.334H261.345C261.084 221.334 260.899 221.388 260.789 221.498C260.68 221.601 260.625 221.779 260.625 222.033V222.896H261.879V223.626H260.625V227.995H259.761ZM265.03 228.118C264.55 228.118 264.118 228.009 263.734 227.789C263.351 227.57 263.046 227.262 262.819 226.864C262.6 226.46 262.49 225.987 262.49 225.445C262.49 224.904 262.604 224.435 262.83 224.037C263.056 223.633 263.361 223.321 263.745 223.102C264.135 222.882 264.57 222.773 265.05 222.773C265.53 222.773 265.962 222.882 266.345 223.102C266.729 223.321 267.031 223.633 267.25 224.037C267.476 224.435 267.589 224.904 267.589 225.445C267.589 225.987 267.476 226.46 267.25 226.864C267.024 227.262 266.715 227.57 266.325 227.789C265.941 228.009 265.509 228.118 265.03 228.118ZM265.03 227.378C265.324 227.378 265.598 227.306 265.852 227.162C266.106 227.018 266.311 226.802 266.469 226.515C266.626 226.227 266.705 225.87 266.705 225.445C266.705 225.021 266.626 224.664 266.469 224.376C266.318 224.089 266.116 223.873 265.862 223.729C265.609 223.585 265.338 223.513 265.05 223.513C264.755 223.513 264.481 223.585 264.228 223.729C263.974 223.873 263.769 224.089 263.611 224.376C263.453 224.664 263.375 225.021 263.375 225.445C263.375 225.87 263.453 226.227 263.611 226.515C263.769 226.802 263.971 227.018 264.217 227.162C264.471 227.306 264.742 227.378 265.03 227.378ZM268.79 227.995V222.896H269.571L269.643 223.873C269.801 223.537 270.041 223.27 270.363 223.071C270.685 222.872 271.082 222.773 271.555 222.773V223.677H271.319C271.017 223.677 270.74 223.732 270.486 223.842C270.232 223.945 270.03 224.123 269.88 224.376C269.729 224.63 269.653 224.979 269.653 225.425V227.995H268.79ZM272.411 228.046C272.24 228.046 272.096 227.991 271.979 227.882C271.869 227.765 271.815 227.625 271.815 227.46C271.815 227.296 271.869 227.159 271.979 227.049C272.096 226.933 272.24 226.874 272.411 226.874C272.575 226.874 272.712 226.933 272.822 227.049C272.939 227.159 272.997 227.296 272.997 227.46C272.997 227.625 272.939 227.765 272.822 227.882C272.712 227.991 272.575 228.046 272.411 228.046ZM274.419 228.046C274.247 228.046 274.103 227.991 273.987 227.882C273.877 227.765 273.822 227.625 273.822 227.46C273.822 227.296 273.877 227.159 273.987 227.049C274.103 226.933 274.247 226.874 274.419 226.874C274.583 226.874 274.72 226.933 274.83 227.049C274.946 227.159 275.005 227.296 275.005 227.46C275.005 227.625 274.946 227.765 274.83 227.882C274.72 227.991 274.583 228.046 274.419 228.046ZM276.426 228.046C276.255 228.046 276.111 227.991 275.995 227.882C275.885 227.765 275.83 227.625 275.83 227.46C275.83 227.296 275.885 227.159 275.995 227.049C276.111 226.933 276.255 226.874 276.426 226.874C276.591 226.874 276.728 226.933 276.838 227.049C276.954 227.159 277.012 227.296 277.012 227.46C277.012 227.625 276.954 227.765 276.838 227.882C276.728 227.991 276.591 228.046 276.426 228.046Z" fill="#767494"/>
<g clip-path="url(#clip1_104_429)">
<path d="M356.765 228.569C359.131 228.569 361.048 226.651 361.048 224.286C361.048 221.92 359.131 220.002 356.765 220.002C354.4 220.002 352.482 221.92 352.482 224.286C352.482 226.651 354.4 228.569 356.765 228.569Z" stroke="#BCBACD" stroke-width="0.963735" stroke-linecap="round" stroke-linejoin="round"/>
<path d="M362.119 229.64L359.79 227.311" stroke="#BCBACD" stroke-width="0.963735" stroke-linecap="round" stroke-linejoin="round"/>
</g>
</g>
<path d="M386.75 222.75L392 227.865L397.25 222.75" stroke="#8D8BA7" stroke-width="1.25" stroke-linecap="round" stroke-linejoin="round"/>
<path fill-rule="evenodd" clip-rule="evenodd" d="M175.875 138.509C176.348 138.2 176.96 138.202 177.432 138.513L190.006 146.815C190.587 147.199 190.65 148.03 190.136 148.501C189.662 148.936 189.677 149.691 190.171 150.104L190.19 150.12C190.69 150.537 190.69 151.304 190.19 151.721C189.693 152.136 189.69 152.898 190.184 153.317L190.216 153.343C190.763 153.807 190.713 154.666 190.115 155.063L177.433 163.483C176.96 163.797 176.347 163.799 175.873 163.489L163.209 155.219C162.606 154.825 162.552 153.962 163.101 153.496C163.609 153.066 163.609 152.283 163.101 151.854L162.997 151.765C162.484 151.33 162.504 150.532 163.037 150.121C163.568 149.712 163.588 148.916 163.077 148.483C162.54 148.028 162.592 147.184 163.182 146.799L175.875 138.509ZM188.534 148.219C188.952 147.905 188.928 147.271 188.488 146.99L177.418 139.923C176.952 139.626 176.357 139.626 175.891 139.923L164.822 146.99C164.381 147.271 164.357 147.905 164.775 148.219C165.022 148.405 165.359 148.419 165.621 148.255L175.902 141.821C176.362 141.533 176.947 141.533 177.407 141.821L187.688 148.255C187.95 148.419 188.287 148.405 188.534 148.219ZM188.392 151.592C188.866 151.275 188.859 150.576 188.378 150.269L177.414 143.27C176.95 142.974 176.358 142.973 175.893 143.266L167.438 148.607C166.916 148.936 166.925 149.7 167.454 150.018C167.723 150.18 168.061 150.175 168.326 150.007L175.894 145.184C176.358 144.888 176.951 144.888 177.416 145.183L187.53 151.602C187.794 151.769 188.132 151.765 188.392 151.592ZM182.459 152.111C183.323 151.552 183.323 150.288 182.459 149.729L177.425 146.474C176.956 146.17 176.353 146.17 175.884 146.474L170.85 149.729C169.986 150.288 169.986 151.552 170.85 152.111L175.884 155.367C176.353 155.67 176.956 155.67 177.425 155.367L182.459 152.111ZM185.832 153.327C186.312 153.019 186.318 152.321 185.844 152.004C185.584 151.83 185.245 151.827 184.98 151.995L177.41 156.819C176.948 157.113 176.359 157.116 175.895 156.825L165.621 150.395C165.359 150.231 165.022 150.245 164.775 150.431C164.357 150.745 164.381 151.38 164.822 151.661L175.89 158.726C176.356 159.024 176.953 159.023 177.418 158.725L185.832 153.327ZM177.414 160.168C176.951 160.462 176.358 160.462 175.895 160.168L165.712 153.705C165.484 153.561 165.198 153.546 164.957 153.667C164.425 153.933 164.385 154.677 164.885 154.998L175.883 162.068C176.352 162.37 176.956 162.369 177.423 162.064L188.386 154.929C188.845 154.63 188.821 153.949 188.342 153.683C188.109 153.553 187.824 153.561 187.599 153.704L177.414 160.168Z" fill="#5D5A88" stroke="#5D5A88" stroke-width="0.472727"/>
<path d="M195.173 157.364V148.081H197.626V149.719H197.735C197.929 149.175 198.251 148.746 198.702 148.432C199.153 148.117 199.693 147.96 200.322 147.96C200.958 147.96 201.5 148.119 201.948 148.438C202.395 148.752 202.693 149.179 202.842 149.719H202.939C203.128 149.187 203.47 148.762 203.966 148.444C204.466 148.121 205.056 147.96 205.737 147.96C206.603 147.96 207.306 148.236 207.846 148.788C208.39 149.336 208.662 150.114 208.662 151.121V157.364H206.093V151.629C206.093 151.113 205.956 150.726 205.682 150.468C205.408 150.21 205.066 150.081 204.655 150.081C204.188 150.081 203.823 150.231 203.561 150.529C203.299 150.823 203.168 151.212 203.168 151.695V157.364H200.672V151.574C200.672 151.119 200.541 150.756 200.28 150.486C200.022 150.216 199.681 150.081 199.258 150.081C198.972 150.081 198.714 150.154 198.485 150.299C198.259 150.44 198.08 150.639 197.947 150.897C197.814 151.151 197.747 151.449 197.747 151.792V157.364H195.173ZM214.33 157.545C213.375 157.545 212.553 157.352 211.864 156.965C211.179 156.574 210.652 156.022 210.281 155.309C209.91 154.592 209.725 153.744 209.725 152.765C209.725 151.81 209.91 150.972 210.281 150.251C210.652 149.53 211.173 148.967 211.846 148.565C212.523 148.162 213.317 147.96 214.227 147.96C214.84 147.96 215.41 148.059 215.938 148.256C216.469 148.45 216.933 148.742 217.328 149.133C217.726 149.523 218.037 150.015 218.258 150.607C218.48 151.195 218.591 151.884 218.591 152.674V153.381H210.752V151.786H216.167C216.167 151.415 216.087 151.087 215.926 150.801C215.764 150.515 215.541 150.291 215.255 150.13C214.973 149.965 214.644 149.882 214.27 149.882C213.879 149.882 213.532 149.973 213.23 150.154C212.932 150.331 212.698 150.571 212.529 150.873C212.36 151.171 212.273 151.504 212.269 151.87V153.387C212.269 153.847 212.354 154.243 212.523 154.578C212.696 154.912 212.94 155.17 213.254 155.351C213.569 155.533 213.941 155.623 214.372 155.623C214.658 155.623 214.92 155.583 215.158 155.502C215.396 155.422 215.599 155.301 215.768 155.14C215.938 154.979 216.067 154.781 216.155 154.548L218.536 154.705C218.415 155.277 218.168 155.776 217.793 156.203C217.422 156.626 216.943 156.957 216.355 157.195C215.77 157.428 215.096 157.545 214.33 157.545ZM219.675 157.364V148.081H222.129V149.719H222.237C222.431 149.175 222.753 148.746 223.204 148.432C223.656 148.117 224.196 147.96 224.824 147.96C225.461 147.96 226.003 148.119 226.45 148.438C226.897 148.752 227.195 149.179 227.344 149.719H227.441C227.63 149.187 227.973 148.762 228.468 148.444C228.968 148.121 229.558 147.96 230.239 147.96C231.105 147.96 231.808 148.236 232.348 148.788C232.892 149.336 233.164 150.114 233.164 151.121V157.364H230.595V151.629C230.595 151.113 230.458 150.726 230.185 150.468C229.911 150.21 229.568 150.081 229.157 150.081C228.69 150.081 228.325 150.231 228.063 150.529C227.801 150.823 227.67 151.212 227.67 151.695V157.364H225.175V151.574C225.175 151.119 225.044 150.756 224.782 150.486C224.524 150.216 224.183 150.081 223.76 150.081C223.474 150.081 223.217 150.154 222.987 150.299C222.761 150.44 222.582 150.639 222.449 150.897C222.316 151.151 222.25 151.449 222.25 151.792V157.364H219.675ZM234.65 157.364V144.987H237.225V149.64H237.303C237.416 149.391 237.579 149.137 237.793 148.879C238.01 148.617 238.292 148.399 238.639 148.226C238.989 148.049 239.425 147.96 239.944 147.96C240.621 147.96 241.246 148.138 241.818 148.492C242.39 148.843 242.847 149.372 243.19 150.081C243.532 150.787 243.703 151.671 243.703 152.735C243.703 153.77 243.536 154.644 243.202 155.357C242.871 156.066 242.42 156.604 241.848 156.971C241.28 157.334 240.643 157.515 239.938 157.515C239.439 157.515 239.014 157.432 238.663 157.267C238.317 157.102 238.033 156.894 237.811 156.645C237.589 156.391 237.42 156.135 237.303 155.877H237.188V157.364H234.65ZM237.17 152.722C237.17 153.274 237.247 153.756 237.4 154.167C237.553 154.578 237.775 154.898 238.065 155.128C238.355 155.353 238.707 155.466 239.122 155.466C239.541 155.466 239.896 155.351 240.186 155.122C240.476 154.888 240.696 154.566 240.845 154.155C240.998 153.74 241.074 153.262 241.074 152.722C241.074 152.187 241 151.715 240.851 151.308C240.702 150.901 240.482 150.583 240.192 150.353C239.902 150.124 239.545 150.009 239.122 150.009C238.703 150.009 238.349 150.12 238.059 150.341C237.773 150.563 237.553 150.877 237.4 151.284C237.247 151.691 237.17 152.17 237.17 152.722ZM249.056 157.545C248.101 157.545 247.279 157.352 246.59 156.965C245.905 156.574 245.377 156.022 245.007 155.309C244.636 154.592 244.451 153.744 244.451 152.765C244.451 151.81 244.636 150.972 245.007 150.251C245.377 149.53 245.899 148.967 246.572 148.565C247.249 148.162 248.043 147.96 248.953 147.96C249.565 147.96 250.136 148.059 250.663 148.256C251.195 148.45 251.658 148.742 252.053 149.133C252.452 149.523 252.762 150.015 252.984 150.607C253.206 151.195 253.316 151.884 253.316 152.674V153.381H245.478V151.786H250.893C250.893 151.415 250.812 151.087 250.651 150.801C250.49 150.515 250.266 150.291 249.98 150.13C249.698 149.965 249.37 149.882 248.995 149.882C248.605 149.882 248.258 149.973 247.956 150.154C247.658 150.331 247.424 150.571 247.255 150.873C247.086 151.171 246.999 151.504 246.995 151.87V153.387C246.995 153.847 247.08 154.243 247.249 154.578C247.422 154.912 247.666 155.17 247.98 155.351C248.294 155.533 248.667 155.623 249.098 155.623C249.384 155.623 249.646 155.583 249.884 155.502C250.121 155.422 250.325 155.301 250.494 155.14C250.663 154.979 250.792 154.781 250.881 154.548L253.262 154.705C253.141 155.277 252.893 155.776 252.519 156.203C252.148 156.626 251.669 156.957 251.08 157.195C250.496 157.428 249.821 157.545 249.056 157.545ZM254.401 157.364V148.081H256.897V149.701H256.993C257.163 149.125 257.447 148.689 257.846 148.395C258.244 148.097 258.704 147.948 259.223 147.948C259.352 147.948 259.491 147.956 259.64 147.972C259.789 147.988 259.92 148.011 260.033 148.039V150.323C259.912 150.287 259.745 150.255 259.532 150.227C259.318 150.198 259.123 150.184 258.945 150.184C258.567 150.184 258.228 150.267 257.93 150.432C257.636 150.593 257.402 150.819 257.229 151.109C257.06 151.399 256.975 151.733 256.975 152.112V157.364H254.401ZM264.519 161.038C263.685 161.038 262.969 160.923 262.373 160.694C261.781 160.468 261.31 160.16 260.959 159.769C260.609 159.378 260.381 158.939 260.276 158.452L262.657 158.131C262.73 158.317 262.845 158.49 263.002 158.651C263.159 158.812 263.366 158.941 263.624 159.038C263.886 159.139 264.204 159.189 264.579 159.189C265.139 159.189 265.6 159.052 265.963 158.778C266.33 158.508 266.513 158.055 266.513 157.418V155.72H266.404C266.291 155.978 266.122 156.222 265.896 156.451C265.671 156.681 265.381 156.868 265.026 157.013C264.672 157.158 264.249 157.231 263.757 157.231C263.06 157.231 262.426 157.07 261.853 156.747C261.285 156.421 260.832 155.923 260.494 155.255C260.159 154.582 259.992 153.732 259.992 152.704C259.992 151.653 260.163 150.774 260.506 150.069C260.848 149.364 261.304 148.837 261.872 148.486C262.444 148.136 263.07 147.96 263.751 147.96C264.271 147.96 264.706 148.049 265.056 148.226C265.407 148.399 265.689 148.617 265.903 148.879C266.12 149.137 266.287 149.391 266.404 149.64H266.501V148.081H269.057V157.454C269.057 158.244 268.864 158.905 268.477 159.437C268.09 159.968 267.554 160.367 266.869 160.633C266.189 160.903 265.405 161.038 264.519 161.038ZM264.573 155.297C264.988 155.297 265.338 155.194 265.625 154.989C265.915 154.779 266.136 154.481 266.289 154.094C266.446 153.703 266.525 153.236 266.525 152.692C266.525 152.148 266.448 151.677 266.295 151.278C266.142 150.875 265.921 150.563 265.631 150.341C265.34 150.12 264.988 150.009 264.573 150.009C264.15 150.009 263.793 150.124 263.503 150.353C263.213 150.579 262.994 150.893 262.845 151.296C262.696 151.699 262.621 152.164 262.621 152.692C262.621 153.228 262.696 153.691 262.845 154.082C262.998 154.469 263.217 154.769 263.503 154.983C263.793 155.192 264.15 155.297 264.573 155.297ZM270.51 157.364V148.081H273.006V149.701H273.103C273.272 149.125 273.556 148.689 273.955 148.395C274.354 148.097 274.813 147.948 275.333 147.948C275.462 147.948 275.601 147.956 275.75 147.972C275.899 147.988 276.03 148.011 276.143 148.039V150.323C276.022 150.287 275.855 150.255 275.641 150.227C275.428 150.198 275.232 150.184 275.055 150.184C274.676 150.184 274.338 150.267 274.04 150.432C273.745 150.593 273.512 150.819 273.339 151.109C273.169 151.399 273.085 151.733 273.085 152.112V157.364H270.51ZM276.878 157.364V148.081H279.453V157.364H276.878ZM278.171 146.885C277.789 146.885 277.46 146.758 277.186 146.504C276.916 146.246 276.781 145.938 276.781 145.579C276.781 145.225 276.916 144.92 277.186 144.667C277.46 144.409 277.789 144.28 278.171 144.28C278.554 144.28 278.88 144.409 279.15 144.667C279.424 144.92 279.561 145.225 279.561 145.579C279.561 145.938 279.424 146.246 279.15 146.504C278.88 146.758 278.554 146.885 278.171 146.885ZM284.34 157.515C283.635 157.515 282.996 157.334 282.424 156.971C281.856 156.604 281.405 156.066 281.07 155.357C280.74 154.644 280.575 153.77 280.575 152.735C280.575 151.671 280.746 150.787 281.088 150.081C281.431 149.372 281.886 148.843 282.454 148.492C283.026 148.138 283.653 147.96 284.334 147.96C284.853 147.96 285.287 148.049 285.633 148.226C285.984 148.399 286.266 148.617 286.479 148.879C286.697 149.137 286.862 149.391 286.975 149.64H287.053V144.987H289.622V157.364H287.084V155.877H286.975C286.854 156.135 286.683 156.391 286.461 156.645C286.243 156.894 285.959 157.102 285.609 157.267C285.262 157.432 284.839 157.515 284.34 157.515ZM285.156 155.466C285.571 155.466 285.921 155.353 286.207 155.128C286.497 154.898 286.719 154.578 286.872 154.167C287.029 153.756 287.108 153.274 287.108 152.722C287.108 152.17 287.031 151.691 286.878 151.284C286.725 150.877 286.503 150.563 286.213 150.341C285.923 150.12 285.571 150.009 285.156 150.009C284.733 150.009 284.376 150.124 284.086 150.353C283.796 150.583 283.576 150.901 283.427 151.308C283.278 151.715 283.204 152.187 283.204 152.722C283.204 153.262 283.278 153.74 283.427 154.155C283.58 154.566 283.8 154.888 284.086 155.122C284.376 155.351 284.733 155.466 285.156 155.466ZM293.996 157.364V151.175H295.284V153.502H295.323C295.379 153.377 295.461 153.25 295.568 153.121C295.676 152.99 295.817 152.882 295.991 152.795C296.166 152.706 296.384 152.662 296.643 152.662C296.982 152.662 297.294 152.751 297.58 152.928C297.866 153.103 298.095 153.368 298.266 153.723C298.437 154.075 298.523 154.517 298.523 155.049C298.523 155.567 298.439 156.004 298.272 156.361C298.107 156.715 297.881 156.984 297.595 157.167C297.311 157.349 296.993 157.439 296.64 157.439C296.391 157.439 296.178 157.398 296.003 157.315C295.83 157.233 295.688 157.129 295.577 157.004C295.466 156.877 295.381 156.749 295.323 156.62H295.266V157.364H293.996ZM295.256 155.043C295.256 155.319 295.295 155.56 295.371 155.765C295.448 155.971 295.559 156.131 295.704 156.246C295.849 156.359 296.025 156.415 296.232 156.415C296.442 156.415 296.619 156.358 296.764 156.243C296.909 156.126 297.019 155.965 297.094 155.759C297.17 155.552 297.208 155.313 297.208 155.043C297.208 154.775 297.171 154.539 297.097 154.336C297.022 154.133 296.912 153.973 296.767 153.859C296.622 153.744 296.444 153.686 296.232 153.686C296.023 153.686 295.846 153.742 295.701 153.853C295.558 153.963 295.448 154.12 295.371 154.324C295.295 154.527 295.256 154.767 295.256 155.043ZM301.199 157.454C300.722 157.454 300.311 157.358 299.966 157.164C299.624 156.969 299.36 156.693 299.175 156.336C298.989 155.978 298.897 155.554 298.897 155.064C298.897 154.587 298.989 154.168 299.175 153.807C299.36 153.447 299.621 153.166 299.957 152.964C300.296 152.763 300.693 152.662 301.148 152.662C301.454 152.662 301.739 152.711 302.003 152.81C302.269 152.907 302.501 153.053 302.698 153.248C302.897 153.444 303.053 153.689 303.163 153.986C303.274 154.28 303.329 154.624 303.329 155.019V155.372H299.41V154.575H302.118C302.118 154.389 302.078 154.225 301.997 154.082C301.916 153.939 301.805 153.827 301.662 153.747C301.521 153.664 301.356 153.623 301.169 153.623C300.974 153.623 300.8 153.668 300.649 153.759C300.5 153.848 300.383 153.967 300.299 154.118C300.214 154.268 300.171 154.434 300.169 154.617V155.375C300.169 155.605 300.211 155.804 300.296 155.971C300.382 156.138 300.504 156.267 300.661 156.358C300.818 156.448 301.005 156.494 301.22 156.494C301.363 156.494 301.494 156.473 301.613 156.433C301.732 156.393 301.834 156.332 301.918 156.252C302.003 156.171 302.067 156.072 302.112 155.956L303.302 156.034C303.242 156.32 303.118 156.57 302.931 156.784C302.745 156.995 302.506 157.16 302.211 157.279C301.919 157.396 301.582 157.454 301.199 157.454ZM306.34 152.722V153.689H303.545V152.722H306.34ZM304.18 151.61H305.467V155.938C305.467 156.056 305.485 156.149 305.522 156.216C305.558 156.28 305.608 156.325 305.673 156.352C305.739 156.378 305.816 156.391 305.902 156.391C305.963 156.391 306.023 156.386 306.084 156.376C306.144 156.364 306.19 156.355 306.223 156.348L306.425 157.306C306.361 157.327 306.27 157.35 306.153 157.376C306.036 157.404 305.894 157.421 305.727 157.427C305.417 157.439 305.145 157.398 304.911 157.303C304.68 157.209 304.499 157.062 304.37 156.862C304.241 156.663 304.178 156.411 304.18 156.107V151.61ZM308.205 157.451C307.909 157.451 307.645 157.4 307.413 157.297C307.181 157.193 306.998 157.038 306.863 156.835C306.73 156.629 306.664 156.374 306.664 156.067C306.664 155.81 306.711 155.593 306.806 155.418C306.9 155.243 307.029 155.102 307.192 154.995C307.356 154.888 307.541 154.807 307.748 154.753C307.958 154.699 308.177 154.66 308.407 154.638C308.677 154.61 308.895 154.584 309.06 154.56C309.225 154.533 309.345 154.495 309.419 154.445C309.494 154.394 309.531 154.32 309.531 154.221V154.203C309.531 154.012 309.471 153.864 309.35 153.759C309.231 153.654 309.062 153.602 308.842 153.602C308.611 153.602 308.426 153.653 308.289 153.756C308.152 153.857 308.062 153.984 308.017 154.137L306.827 154.04C306.887 153.758 307.006 153.514 307.183 153.309C307.361 153.101 307.589 152.942 307.869 152.831C308.151 152.718 308.478 152.662 308.848 152.662C309.106 152.662 309.353 152.692 309.589 152.753C309.826 152.813 310.037 152.907 310.22 153.034C310.405 153.161 310.551 153.324 310.658 153.523C310.765 153.721 310.818 153.957 310.818 154.233V157.364H309.598V156.72H309.561C309.487 156.865 309.387 156.993 309.262 157.104C309.137 157.213 308.987 157.298 308.812 157.361C308.637 157.421 308.434 157.451 308.205 157.451ZM308.573 156.563C308.763 156.563 308.93 156.526 309.075 156.451C309.22 156.375 309.334 156.272 309.416 156.143C309.499 156.014 309.54 155.868 309.54 155.705V155.212C309.5 155.239 309.445 155.263 309.374 155.285C309.306 155.305 309.228 155.324 309.141 155.342C309.055 155.358 308.968 155.373 308.881 155.388C308.795 155.4 308.716 155.411 308.646 155.421C308.495 155.443 308.363 155.478 308.25 155.527C308.137 155.575 308.05 155.64 307.987 155.723C307.925 155.804 307.893 155.904 307.893 156.025C307.893 156.2 307.957 156.334 308.084 156.427C308.213 156.518 308.376 156.563 308.573 156.563ZM315.871 151.175V157.364H314.563V152.417H314.526L313.109 153.306V152.145L314.641 151.175H315.871ZM317.476 157.442C317.277 157.442 317.106 157.372 316.962 157.231C316.821 157.088 316.751 156.917 316.751 156.717C316.751 156.52 316.821 156.35 316.962 156.209C317.106 156.068 317.277 155.998 317.476 155.998C317.67 155.998 317.839 156.068 317.984 156.209C318.129 156.35 318.201 156.52 318.201 156.717C318.201 156.85 318.167 156.972 318.099 157.083C318.032 157.192 317.945 157.279 317.836 157.346C317.727 157.41 317.607 157.442 317.476 157.442ZM321.125 157.5C320.606 157.498 320.158 157.37 319.784 157.116C319.411 156.862 319.124 156.495 318.923 156.013C318.723 155.532 318.624 154.952 318.626 154.276C318.626 153.601 318.726 153.026 318.926 152.55C319.127 152.075 319.414 151.713 319.787 151.465C320.162 151.216 320.608 151.091 321.125 151.091C321.643 151.091 322.088 151.216 322.461 151.465C322.836 151.715 323.124 152.078 323.325 152.553C323.527 153.027 323.626 153.601 323.624 154.276C323.624 154.954 323.524 155.535 323.322 156.016C323.123 156.498 322.837 156.865 322.464 157.119C322.091 157.373 321.645 157.5 321.125 157.5ZM321.125 156.415C321.48 156.415 321.763 156.237 321.975 155.88C322.186 155.524 322.291 154.989 322.289 154.276C322.289 153.806 322.24 153.415 322.144 153.103C322.049 152.791 321.914 152.556 321.739 152.399C321.566 152.242 321.361 152.163 321.125 152.163C320.773 152.163 320.491 152.34 320.279 152.692C320.068 153.045 319.961 153.573 319.959 154.276C319.959 154.751 320.006 155.148 320.101 155.466C320.198 155.782 320.334 156.02 320.509 156.179C320.684 156.336 320.89 156.415 321.125 156.415Z" fill="#5D5A88"/>
<line x1="438.099" y1="141.278" x2="417.278" y2="141.278" stroke="#5D5A88" stroke-width="2.55658" stroke-linecap="round"/>
<line x1="438.099" y1="149.816" x2="417.279" y2="149.816" stroke="#5D5A88" stroke-width="2.55658" stroke-linecap="round"/>
<line x1="438.099" y1="158.278" x2="417.279" y2="158.278" stroke="#5D5A88" stroke-width="2.55658" stroke-linecap="round"/>
<defs>
<filter id="filter0_d_104_429" x="194" y="248" width="220" height="281.285" filterUnits="userSpaceOnUse" color-interpolation-filters="sRGB">
<feFlood flood-opacity="0" result="BackgroundImageFix"/>
<feColorMatrix in="SourceAlpha" type="matrix" values="0 0 0 0 0 0 0 0 0 0 0 0 0 0 0 0 0 0 127 0" result="hardAlpha"/>
<feOffset dy="1"/>
<feGaussianBlur stdDeviation="3.5"/>
<feComposite in2="hardAlpha" operator="out"/>
<feColorMatrix type="matrix" values="0 0 0 0 0 0 0 0 0 0 0 0 0 0 0 0 0 0 0.15 0"/>
<feBlend mode="normal" in2="BackgroundImageFix" result="effect1_dropShadow_104_429"/>
<feBlend mode="normal" in="SourceGraphic" in2="effect1_dropShadow_104_429" result="shape"/>
</filter>
<clipPath id="clip0_104_429">
<rect x="221.126" y="456.555" width="166.749" height="60.9619" fill="white"/>
</clipPath>
<clipPath id="clip1_104_429">
<rect width="11.5648" height="11.5648" fill="white" transform="translate(351.518 219.212)"/>
</clipPath>
</defs>
</svg>
