<svg width="45" height="45" viewBox="0 0 45 45" fill="none" xmlns="http://www.w3.org/2000/svg">
<rect x="0.181885" width="44.1818" height="44.1818" rx="9.81818" fill="#F2F1FA"/>
<path d="M11.2273 14.0154C11.2273 13.307 11.4761 12.7225 11.9736 12.2621C12.4711 11.8017 13.118 11.5714 13.914 11.5714C14.6959 11.5714 15.3285 11.7981 15.8118 12.2515C16.3093 12.719 16.5581 13.3282 16.5581 14.0791C16.5581 14.7592 16.3165 15.3259 15.8331 15.7792C15.3356 16.2468 14.6817 16.4805 13.8714 16.4805H13.8501C13.0682 16.4805 12.4356 16.2468 11.9523 15.7792C11.469 15.3117 11.2273 14.7237 11.2273 14.0154ZM11.5045 32.6104V18.4144H16.2383V32.6104H11.5045ZM18.861 32.6104H23.5948V24.6836C23.5948 24.1877 23.6517 23.8052 23.7654 23.536C23.9644 23.0543 24.2665 22.647 24.6716 22.3141C25.0768 21.9811 25.585 21.8146 26.1962 21.8146C27.7884 21.8146 28.5844 22.8843 28.5844 25.0236V32.6104H33.3182V24.4711C33.3182 22.3743 32.8207 20.784 31.8256 19.7001C30.8305 18.6163 29.5156 18.0744 27.8808 18.0744C26.047 18.0744 24.6183 18.8607 23.5948 20.4333V20.4758H23.5735L23.5948 20.4333V18.4144H18.861C18.8895 18.8678 18.9037 20.2774 18.9037 22.6435C18.9037 25.0094 18.8895 28.3318 18.861 32.6104Z" fill="#8D8BA7"/>
</svg>
