<svg width="100" height="90" viewBox="0 0 100 90" fill="none" xmlns="http://www.w3.org/2000/svg">
<path fill-rule="evenodd" clip-rule="evenodd" d="M46.9521 1.97985C48.804 0.776879 51.1921 0.782854 53.0379 1.99507L96.4668 30.5159C98.4841 31.8406 98.7014 34.7214 96.9192 36.3486V36.3486C95.2725 37.8521 95.3242 40.473 97.0401 41.8972L97.1069 41.9526C98.8419 43.3928 98.8419 46.0551 97.1069 47.4952V47.4952C95.3802 48.9283 95.3703 51.5743 97.0861 53.0204L97.1948 53.112C99.095 54.7135 98.9211 57.692 96.8475 59.0614L53.0413 87.9915C51.1942 89.2113 48.7998 89.2204 46.9436 88.0146L3.20379 59.6019C1.11124 58.2426 0.92506 55.2487 2.83308 53.6407V53.6407C4.59578 52.1551 4.59578 49.44 2.83308 47.9544L2.47097 47.6492C0.688385 46.1469 0.759154 43.3761 2.60968 41.9583V41.9583C4.45362 40.5455 4.52414 37.7846 2.74789 36.2875V36.2875C0.882279 34.7152 1.06432 31.7879 3.11036 30.4588L46.9521 1.97985ZM91.3329 35.3811C92.7885 34.2937 92.7047 32.0855 91.1708 31.1116L52.9828 6.86331C51.1623 5.70733 48.8377 5.70733 47.0172 6.86331L8.82915 31.1116C7.29527 32.0855 7.21148 34.2937 8.66713 35.3811V35.3811C9.52336 36.0207 10.6842 36.0699 11.5915 35.5051L47.0592 13.4258C48.8596 12.305 51.1404 12.305 52.9408 13.4258L88.4085 35.5051C89.3158 36.0699 90.4766 36.0207 91.3329 35.3811V35.3811ZM90.8356 47.0561C92.4868 45.9597 92.4619 43.5265 90.7887 42.464L52.967 18.4484C51.1546 17.2976 48.8419 17.292 47.024 18.4341L17.9378 36.708C16.121 37.8494 16.1506 40.5072 17.9924 41.6079V41.6079C18.9236 42.1644 20.0887 42.1491 21.005 41.5683L47.027 25.0746C48.8426 23.9238 51.1587 23.9217 52.9764 25.0692L87.8596 47.0904C88.7717 47.6663 89.937 47.6528 90.8356 47.0561V47.0561ZM69.3336 49.4038C72.739 47.2132 72.739 42.2347 69.3336 40.0441L53.0104 29.5439C51.1768 28.3644 48.8232 28.3644 46.9896 29.5439L30.6664 40.0441C27.261 42.2347 27.261 47.2132 30.6664 49.4038L46.9896 59.904C48.8232 61.0835 51.1768 61.0835 53.0104 59.904L69.3336 49.4038ZM81.9288 53.0624C83.5993 51.9965 83.6215 49.5646 81.9706 48.4684V48.4684C81.0695 47.87 79.9007 47.8576 78.9871 48.4367L52.9523 64.9385C51.1474 66.0826 48.8467 66.0919 47.0326 64.9625L11.5915 42.8998C10.6842 42.335 9.52336 42.3842 8.66713 43.0238V43.0238C7.21148 44.1112 7.29527 46.3194 8.82915 47.2934L47.0099 71.537C48.8342 72.6953 51.1642 72.6928 52.9859 71.5303L81.9288 53.0624ZM52.9704 76.5297C51.1558 77.6753 48.8442 77.6753 47.0296 76.5297L11.9073 54.3575C11.1213 53.8613 10.1332 53.8113 9.30111 54.2257V54.2257C7.45061 55.1473 7.31224 57.735 9.0539 58.8486L46.9836 83.1019C48.8208 84.2767 51.1749 84.27 53.0054 83.0849L90.8145 58.6066C92.4141 57.5709 92.3323 55.2037 90.6648 54.281V54.281C89.8593 53.8353 88.8749 53.8637 88.0964 54.3552L52.9704 76.5297Z" fill="#5D5A88" stroke="#5D5A88" stroke-width="1.85484"/>
</svg>
