<svg width="294" height="45" viewBox="0 0 294 45" fill="none" xmlns="http://www.w3.org/2000/svg">
<path fill-rule="evenodd" clip-rule="evenodd" d="M24.0141 0.881331C24.8334 0.346298 25.8921 0.348952 26.7087 0.888086L48.4711 15.2568C49.4772 15.9211 49.5857 17.3592 48.6976 18.1745V18.1745C47.8773 18.9274 47.903 20.2352 48.7579 20.9486L48.7911 20.9763C49.6557 21.6978 49.6557 23.0261 48.7911 23.7476V23.7476C47.9308 24.4655 47.9258 25.7858 48.7807 26.5101L48.8348 26.556C49.7819 27.3584 49.6949 28.8449 48.6608 29.5315L26.7102 44.1059C25.8931 44.6484 24.8315 44.6525 24.0103 44.1162L2.09202 29.8018C1.04843 29.1203 0.955363 27.6261 1.90633 26.8203V26.8203C2.78461 26.0761 2.78461 24.7214 1.90633 23.9772L1.72578 23.8243C0.837704 23.0718 0.872834 21.6896 1.79499 20.9793V20.9793C2.71407 20.2713 2.74908 18.8938 1.86396 18.1438V18.1438C0.93413 17.3559 1.02513 15.8949 2.04553 15.2285L24.0141 0.881331ZM45.9247 17.6867C46.6478 17.1436 46.6061 16.0455 45.8438 15.5589L26.6844 3.32781C25.879 2.81363 24.8483 2.81363 24.0429 3.32781L4.88347 15.5589C4.12121 16.0455 4.07946 17.1436 4.80258 17.6867V17.6867C5.2311 18.0085 5.81356 18.0333 6.26785 17.7489L24.0614 6.61255C24.858 6.11401 25.8693 6.11401 26.6658 6.61255L44.4594 17.7489C44.9137 18.0333 45.4962 18.0085 45.9247 17.6867V17.6867ZM45.6778 23.5243C46.4984 22.9765 46.486 21.7664 45.6544 21.2355L26.6774 9.1209C25.8756 8.60901 24.8501 8.60655 24.0458 9.11458L9.41226 18.3578C8.50915 18.9282 8.52391 20.2503 9.43954 20.8004V20.8004C9.90587 21.0806 10.4906 21.0729 10.9493 20.7805L24.0472 12.434C24.8505 11.9221 25.8774 11.9212 26.6816 12.4316L44.1865 23.5416C44.6432 23.8315 45.2279 23.8247 45.6778 23.5243V23.5243ZM35.4099 24.423C36.9054 23.4559 36.9054 21.268 35.4099 20.3009L26.6966 14.6657C25.8854 14.1411 24.8419 14.1411 24.0307 14.6657L15.3174 20.3009C13.8219 21.268 13.8219 23.4559 15.3174 24.423L24.0307 30.0582C24.8419 30.5828 25.8854 30.5828 26.6966 30.0582L35.4099 24.423ZM41.2481 26.5277C42.0784 25.9951 42.0894 24.7856 41.269 24.2379V24.2379C40.8179 23.9367 40.2314 23.9305 39.7739 24.222L26.6709 32.5719C25.8724 33.0807 24.8523 33.0849 24.0496 32.5825L6.26785 21.4535C5.81356 21.1692 5.2311 21.1939 4.80258 21.5158V21.5158C4.07946 22.0589 4.12121 23.157 4.88348 23.6436L24.0396 35.8726C24.8467 36.3878 25.8798 36.3867 26.6857 35.8696L41.2481 26.5277ZM26.6789 38.3677C25.8761 38.8772 24.8512 38.8772 24.0483 38.3677L6.42397 27.1818C6.03032 26.932 5.5345 26.9068 5.11761 27.1156V27.1156C4.19721 27.5764 4.12817 28.8638 4.99401 29.4204L24.028 41.6567C24.8408 42.1792 25.8845 42.1763 26.6944 41.6492L45.6672 29.2997C46.4624 28.7822 46.4215 27.6046 45.5925 27.1434V27.1434C45.189 26.9189 44.695 26.9332 44.3052 27.1806L26.6789 38.3677Z" fill="#5D5A88" stroke="#5D5A88" stroke-width="0.818182"/>
<path d="M57.4149 33.0908V17.0247H61.6615V19.8593H61.8498C62.1845 18.9179 62.7423 18.1753 63.5233 17.6314C64.3043 17.0875 65.2387 16.8155 66.3265 16.8155C67.4283 16.8155 68.3662 17.0909 69.1402 17.6418C69.9142 18.1857 70.4302 18.9249 70.6882 19.8593H70.8556C71.1833 18.9388 71.7761 18.2032 72.6337 17.6523C73.4984 17.0944 74.52 16.8155 75.6984 16.8155C77.1977 16.8155 78.4145 17.2932 79.3489 18.2485C80.2903 19.1968 80.7609 20.5427 80.7609 22.2859V33.0908H76.3156V23.1646C76.3156 22.272 76.0785 21.6026 75.6043 21.1563C75.1301 20.71 74.5374 20.4869 73.8262 20.4869C73.0173 20.4869 72.3862 20.7449 71.9329 21.2609C71.4797 21.7699 71.2531 22.4428 71.2531 23.2796V33.0908H66.9332V23.0704C66.9332 22.2825 66.7066 21.6549 66.2533 21.1877C65.807 20.7205 65.2178 20.4869 64.4856 20.4869C63.9905 20.4869 63.5443 20.6124 63.1468 20.8634C62.7563 21.1075 62.446 21.4526 62.2159 21.8989C61.9858 22.3382 61.8707 22.8542 61.8707 23.447V33.0908H57.4149ZM90.5715 33.4046C88.9189 33.4046 87.4964 33.0699 86.304 32.4005C85.1185 31.7241 84.205 30.7688 83.5635 29.5345C82.922 28.2933 82.6012 26.8255 82.6012 25.131C82.6012 23.4783 82.922 22.0279 83.5635 20.7797C84.205 19.5315 85.1081 18.5588 86.2726 17.8615C87.4441 17.1642 88.8178 16.8155 90.3937 16.8155C91.4536 16.8155 92.4403 16.9864 93.3538 17.328C94.2743 17.6627 95.0762 18.1683 95.7595 18.8447C96.4499 19.5211 96.9868 20.3718 97.3703 21.3969C97.7539 22.4149 97.9456 23.6073 97.9456 24.9741V26.1979H84.3794V23.4365H93.7513C93.7513 22.795 93.6118 22.2267 93.3329 21.7316C93.054 21.2365 92.667 20.8495 92.1719 20.5705C91.6837 20.2846 91.1154 20.1417 90.4669 20.1417C89.7905 20.1417 89.1908 20.2986 88.6679 20.6124C88.1518 20.9192 87.7474 21.3341 87.4545 21.8571C87.1617 22.3731 87.0117 22.9484 87.0048 23.5829V26.2083C87.0048 27.0033 87.1512 27.6901 87.4441 28.2689C87.7439 28.8477 88.1658 29.2939 88.7097 29.6077C89.2536 29.9215 89.8986 30.0784 90.6447 30.0784C91.1398 30.0784 91.5931 30.0087 92.0045 29.8692C92.4159 29.7298 92.7681 29.5206 93.0609 29.2416C93.3538 28.9627 93.577 28.621 93.7304 28.2166L97.8515 28.4885C97.6423 29.4787 97.2134 30.3434 96.5649 31.0826C95.9234 31.8147 95.0936 32.3865 94.0755 32.7979C93.0644 33.2024 91.8964 33.4046 90.5715 33.4046ZM99.8225 33.0908V17.0247H104.069V19.8593H104.257C104.592 18.9179 105.15 18.1753 105.931 17.6314C106.712 17.0875 107.646 16.8155 108.734 16.8155C109.836 16.8155 110.774 17.0909 111.548 17.6418C112.322 18.1857 112.838 18.9249 113.096 19.8593H113.263C113.591 18.9388 114.184 18.2032 115.041 17.6523C115.906 17.0944 116.928 16.8155 118.106 16.8155C119.605 16.8155 120.822 17.2932 121.757 18.2485C122.698 19.1968 123.169 20.5427 123.169 22.2859V33.0908H118.723V23.1646C118.723 22.272 118.486 21.6026 118.012 21.1563C117.538 20.71 116.945 20.4869 116.234 20.4869C115.425 20.4869 114.794 20.7449 114.341 21.2609C113.887 21.7699 113.661 22.4428 113.661 23.2796V33.0908H109.341V23.0704C109.341 22.2825 109.114 21.6549 108.661 21.1877C108.215 20.7205 107.625 20.4869 106.893 20.4869C106.398 20.4869 105.952 20.6124 105.554 20.8634C105.164 21.1075 104.854 21.4526 104.624 21.8989C104.393 22.3382 104.278 22.8542 104.278 23.447V33.0908H99.8225ZM125.741 33.0908V11.6693H130.197V19.7233H130.333C130.528 19.291 130.811 18.8517 131.18 18.4054C131.557 17.9521 132.045 17.5756 132.644 17.2757C133.251 16.9689 134.004 16.8155 134.904 16.8155C136.075 16.8155 137.156 17.1223 138.146 17.736C139.136 18.3426 139.928 19.2596 140.521 20.4869C141.113 21.7072 141.41 23.2378 141.41 25.0787C141.41 26.8708 141.12 28.384 140.542 29.6182C139.97 30.8455 139.189 31.7764 138.199 32.4109C137.215 33.0385 136.114 33.3523 134.893 33.3523C134.029 33.3523 133.293 33.2094 132.686 32.9235C132.087 32.6376 131.595 32.2784 131.211 31.8461C130.828 31.4068 130.535 30.964 130.333 30.5177H130.134V33.0908H125.741ZM130.103 25.0578C130.103 26.0131 130.235 26.8464 130.5 27.5576C130.765 28.2689 131.149 28.8233 131.651 29.2207C132.153 29.6112 132.763 29.8065 133.481 29.8065C134.206 29.8065 134.82 29.6077 135.322 29.2103C135.824 28.8058 136.204 28.248 136.462 27.5367C136.727 26.8185 136.86 25.9922 136.86 25.0578C136.86 24.1303 136.731 23.3145 136.473 22.6102C136.215 21.9059 135.835 21.355 135.333 20.9576C134.831 20.5601 134.213 20.3614 133.481 20.3614C132.756 20.3614 132.142 20.5531 131.64 20.9366C131.145 21.3202 130.765 21.8641 130.5 22.5684C130.235 23.2726 130.103 24.1024 130.103 25.0578ZM150.674 33.4046C149.021 33.4046 147.599 33.0699 146.406 32.4005C145.221 31.7241 144.307 30.7688 143.666 29.5345C143.024 28.2933 142.703 26.8255 142.703 25.131C142.703 23.4783 143.024 22.0279 143.666 20.7797C144.307 19.5315 145.21 18.5588 146.375 17.8615C147.546 17.1642 148.92 16.8155 150.496 16.8155C151.556 16.8155 152.543 16.9864 153.456 17.328C154.376 17.6627 155.178 18.1683 155.862 18.8447C156.552 19.5211 157.089 20.3718 157.473 21.3969C157.856 22.4149 158.048 23.6073 158.048 24.9741V26.1979H144.482V23.4365H153.854C153.854 22.795 153.714 22.2267 153.435 21.7316C153.156 21.2365 152.769 20.8495 152.274 20.5705C151.786 20.2846 151.218 20.1417 150.569 20.1417C149.893 20.1417 149.293 20.2986 148.77 20.6124C148.254 20.9192 147.85 21.3341 147.557 21.8571C147.264 22.3731 147.114 22.9484 147.107 23.5829V26.2083C147.107 27.0033 147.253 27.6901 147.546 28.2689C147.846 28.8477 148.268 29.2939 148.812 29.6077C149.356 29.9215 150.001 30.0784 150.747 30.0784C151.242 30.0784 151.695 30.0087 152.107 29.8692C152.518 29.7298 152.87 29.5206 153.163 29.2416C153.456 28.9627 153.679 28.621 153.833 28.2166L157.954 28.4885C157.745 29.4787 157.316 30.3434 156.667 31.0826C156.026 31.8147 155.196 32.3865 154.178 32.7979C153.167 33.2024 151.999 33.4046 150.674 33.4046ZM159.925 33.0908V17.0247H164.245V19.8279H164.412C164.705 18.8307 165.196 18.0776 165.887 17.5686C166.577 17.0526 167.372 16.7946 168.272 16.7946C168.495 16.7946 168.735 16.8085 168.993 16.8364C169.251 16.8643 169.478 16.9027 169.673 16.9515V20.9053C169.464 20.8425 169.175 20.7867 168.805 20.7379C168.435 20.6891 168.097 20.6647 167.79 20.6647C167.135 20.6647 166.549 20.8076 166.033 21.0935C165.524 21.3725 165.12 21.763 164.82 22.265C164.527 22.7671 164.381 23.3459 164.381 24.0013V33.0908H159.925ZM177.436 39.4503C175.993 39.4503 174.755 39.2516 173.723 38.8541C172.698 38.4636 171.882 37.9302 171.276 37.2538C170.669 36.5774 170.275 35.8173 170.094 34.9736L174.215 34.4192C174.34 34.74 174.539 35.0398 174.811 35.3187C175.083 35.5977 175.442 35.8208 175.888 35.9882C176.342 36.1625 176.892 36.2497 177.541 36.2497C178.51 36.2497 179.309 36.0126 179.936 35.5384C180.571 35.0712 180.888 34.2867 180.888 33.185V30.2458H180.7C180.504 30.6921 180.212 31.1139 179.821 31.5114C179.431 31.9089 178.929 32.2331 178.315 32.4842C177.701 32.7352 176.969 32.8607 176.118 32.8607C174.912 32.8607 173.814 32.5818 172.824 32.0239C171.84 31.4591 171.056 30.5979 170.47 29.4404C169.891 28.2759 169.602 26.8045 169.602 25.0264C169.602 23.2064 169.898 21.6862 170.491 20.4659C171.084 19.2456 171.872 18.3322 172.855 17.7255C173.845 17.1188 174.929 16.8155 176.108 16.8155C177.007 16.8155 177.761 16.9689 178.367 17.2757C178.974 17.5756 179.462 17.9521 179.832 18.4054C180.208 18.8517 180.498 19.291 180.7 19.7233H180.867V17.0247H185.292V33.2477C185.292 34.6145 184.957 35.758 184.287 36.6785C183.618 37.599 182.691 38.2893 181.505 38.7495C180.327 39.2167 178.97 39.4503 177.436 39.4503ZM177.53 29.5136C178.249 29.5136 178.855 29.3358 179.35 28.9802C179.852 28.6176 180.236 28.1015 180.501 27.4321C180.773 26.7557 180.909 25.9468 180.909 25.0055C180.909 24.0641 180.776 23.2482 180.511 22.5579C180.246 21.8606 179.863 21.3202 179.361 20.9366C178.859 20.5531 178.249 20.3614 177.53 20.3614C176.798 20.3614 176.181 20.5601 175.679 20.9576C175.177 21.3481 174.797 21.892 174.539 22.5893C174.281 23.2866 174.152 24.092 174.152 25.0055C174.152 25.9329 174.281 26.7348 174.539 27.4112C174.804 28.0806 175.184 28.6001 175.679 28.9697C176.181 29.3323 176.798 29.5136 177.53 29.5136ZM187.806 33.0908V17.0247H192.126V19.8279H192.294C192.587 18.8307 193.078 18.0776 193.769 17.5686C194.459 17.0526 195.254 16.7946 196.153 16.7946C196.376 16.7946 196.617 16.8085 196.875 16.8364C197.133 16.8643 197.36 16.9027 197.555 16.9515V20.9053C197.346 20.8425 197.056 20.7867 196.687 20.7379C196.317 20.6891 195.979 20.6647 195.672 20.6647C195.017 20.6647 194.431 20.8076 193.915 21.0935C193.406 21.3725 193.001 21.763 192.702 22.265C192.409 22.7671 192.262 23.3459 192.262 24.0013V33.0908H187.806ZM198.828 33.0908V17.0247H203.284V33.0908H198.828ZM201.066 14.9537C200.404 14.9537 199.835 14.734 199.361 14.2947C198.894 13.8484 198.66 13.315 198.66 12.6944C198.66 12.0807 198.894 11.5543 199.361 11.115C199.835 10.6687 200.404 10.4455 201.066 10.4455C201.729 10.4455 202.293 10.6687 202.761 11.115C203.235 11.5543 203.472 12.0807 203.472 12.6944C203.472 13.315 203.235 13.8484 202.761 14.2947C202.293 14.734 201.729 14.9537 201.066 14.9537ZM211.742 33.3523C210.522 33.3523 209.417 33.0385 208.427 32.4109C207.443 31.7764 206.662 30.8455 206.084 29.6182C205.512 28.384 205.226 26.8708 205.226 25.0787C205.226 23.2378 205.522 21.7072 206.115 20.4869C206.708 19.2596 207.496 18.3426 208.479 17.736C209.469 17.1223 210.553 16.8155 211.732 16.8155C212.631 16.8155 213.381 16.9689 213.981 17.2757C214.587 17.5756 215.075 17.9521 215.445 18.4054C215.822 18.8517 216.107 19.291 216.303 19.7233H216.439V11.6693H220.884V33.0908H216.491V30.5177H216.303C216.094 30.964 215.797 31.4068 215.414 31.8461C215.037 32.2784 214.545 32.6376 213.939 32.9235C213.339 33.2094 212.607 33.3523 211.742 33.3523ZM213.154 29.8065C213.873 29.8065 214.479 29.6112 214.974 29.2207C215.476 28.8233 215.86 28.2689 216.125 27.5576C216.397 26.8464 216.533 26.0131 216.533 25.0578C216.533 24.1024 216.4 23.2726 216.135 22.5684C215.87 21.8641 215.487 21.3202 214.985 20.9366C214.483 20.5531 213.873 20.3614 213.154 20.3614C212.422 20.3614 211.805 20.5601 211.303 20.9576C210.801 21.355 210.421 21.9059 210.163 22.6102C209.905 23.3145 209.776 24.1303 209.776 25.0578C209.776 25.9922 209.905 26.8185 210.163 27.5367C210.428 28.248 210.808 28.8058 211.303 29.2103C211.805 29.6077 212.422 29.8065 213.154 29.8065ZM228.456 33.0908V22.3801H230.684V26.4071H230.752C230.849 26.1909 230.99 25.9712 231.175 25.7481C231.363 25.5215 231.607 25.3332 231.907 25.1833C232.211 25.0299 232.587 24.9532 233.037 24.9532C233.623 24.9532 234.163 25.1066 234.658 25.4134C235.153 25.7167 235.549 26.1752 235.845 26.7888C236.142 27.399 236.29 28.1643 236.29 29.0848C236.29 29.9808 236.145 30.7374 235.856 31.3545C235.57 31.9681 235.179 32.4336 234.684 32.7509C234.193 33.0647 233.642 33.2216 233.032 33.2216C232.599 33.2216 232.232 33.1501 231.928 33.0071C231.628 32.8642 231.383 32.6846 231.191 32.4685C230.999 32.2488 230.853 32.0274 230.752 31.8043H230.652V33.0908H228.456ZM230.636 29.0743C230.636 29.552 230.703 29.9686 230.835 30.3242C230.968 30.6799 231.159 30.957 231.41 31.1558C231.662 31.351 231.967 31.4486 232.326 31.4486C232.688 31.4486 232.995 31.3493 233.246 31.1505C233.497 30.9483 233.687 30.6694 233.816 30.3138C233.949 29.9547 234.015 29.5415 234.015 29.0743C234.015 28.6106 233.95 28.2026 233.821 27.8505C233.692 27.4984 233.502 27.2229 233.251 27.0242C233 26.8255 232.692 26.7261 232.326 26.7261C231.963 26.7261 231.656 26.822 231.405 27.0137C231.158 27.2055 230.968 27.4774 230.835 27.8296C230.703 28.1817 230.636 28.5966 230.636 29.0743ZM240.922 33.2477C240.096 33.2477 239.384 33.0804 238.788 32.7456C238.195 32.4075 237.739 31.9298 237.418 31.3127C237.097 30.6921 236.937 29.9581 236.937 29.1109C236.937 28.2846 237.097 27.5594 237.418 26.9353C237.739 26.3112 238.19 25.8248 238.773 25.4762C239.358 25.1275 240.045 24.9532 240.833 24.9532C241.363 24.9532 241.856 25.0386 242.313 25.2094C242.773 25.3768 243.174 25.6296 243.516 25.9678C243.861 26.306 244.13 26.7313 244.321 27.2438C244.513 27.7529 244.609 28.3491 244.609 29.0325V29.6443H237.826V28.2637H242.512C242.512 27.9429 242.442 27.6587 242.303 27.4112C242.163 27.1637 241.97 26.9701 241.722 26.8307C241.478 26.6877 241.194 26.6163 240.87 26.6163C240.531 26.6163 240.232 26.6947 239.97 26.8516C239.712 27.005 239.51 27.2125 239.363 27.474C239.217 27.732 239.142 28.0196 239.139 28.3369V29.6496C239.139 30.047 239.212 30.3905 239.358 30.6799C239.508 30.9692 239.719 31.1924 239.991 31.3493C240.263 31.5062 240.586 31.5846 240.959 31.5846C241.206 31.5846 241.433 31.5498 241.638 31.48C241.844 31.4103 242.02 31.3057 242.167 31.1662C242.313 31.0268 242.425 30.8559 242.501 30.6537L244.562 30.7897C244.457 31.2848 244.243 31.7171 243.919 32.0867C243.598 32.4528 243.183 32.7387 242.674 32.9444C242.168 33.1466 241.584 33.2477 240.922 33.2477ZM249.82 25.0578V26.7313H244.983V25.0578H249.82ZM246.081 23.1332H248.309V30.6223C248.309 30.828 248.34 30.9884 248.403 31.1035C248.466 31.215 248.553 31.2935 248.664 31.3388C248.78 31.3841 248.912 31.4068 249.062 31.4068C249.167 31.4068 249.271 31.3981 249.376 31.3807C249.48 31.3597 249.561 31.344 249.616 31.3336L249.967 32.9915C249.855 33.0263 249.698 33.0664 249.496 33.1117C249.294 33.1606 249.048 33.1902 248.759 33.2006C248.222 33.2216 247.751 33.1501 247.347 32.9862C246.946 32.8224 246.634 32.5678 246.41 32.2227C246.187 31.8775 246.077 31.4417 246.081 30.9152V23.1332ZM253.047 33.2425C252.534 33.2425 252.078 33.1536 251.677 32.9758C251.276 32.7945 250.958 32.5277 250.725 32.1756C250.495 31.82 250.38 31.3772 250.38 30.8472C250.38 30.4009 250.461 30.0261 250.625 29.7228C250.789 29.4195 251.012 29.1754 251.295 28.9906C251.577 28.8058 251.898 28.6664 252.257 28.5722C252.62 28.4781 253 28.4118 253.397 28.3735C253.864 28.3247 254.241 28.2794 254.527 28.2375C254.813 28.1922 255.02 28.1259 255.149 28.0388C255.278 27.9516 255.343 27.8226 255.343 27.6518V27.6204C255.343 27.2892 255.238 27.0329 255.029 26.8516C254.823 26.6703 254.53 26.5796 254.15 26.5796C253.749 26.5796 253.43 26.6686 253.193 26.8464C252.956 27.0207 252.799 27.2404 252.723 27.5053L250.662 27.338C250.767 26.8499 250.972 26.428 251.279 26.0724C251.586 25.7132 251.982 25.4378 252.466 25.246C252.954 25.0508 253.519 24.9532 254.161 24.9532C254.607 24.9532 255.034 25.0055 255.442 25.1101C255.853 25.2147 256.218 25.3768 256.535 25.5964C256.856 25.8161 257.109 26.0985 257.293 26.4437C257.478 26.7854 257.571 27.195 257.571 27.6727V33.0908H255.458V31.9769H255.395C255.266 32.2279 255.093 32.4493 254.877 32.6411C254.661 32.8293 254.401 32.9775 254.098 33.0856C253.795 33.1902 253.444 33.2425 253.047 33.2425ZM253.685 31.7049C254.013 31.7049 254.302 31.6404 254.553 31.5114C254.804 31.3789 255.001 31.2011 255.144 30.978C255.287 30.7548 255.358 30.502 255.358 30.2196V29.3672C255.289 29.4125 255.193 29.4543 255.071 29.4927C254.952 29.5275 254.818 29.5607 254.668 29.592C254.518 29.6199 254.368 29.6461 254.218 29.6705C254.068 29.6914 253.932 29.7106 253.81 29.728C253.549 29.7664 253.32 29.8274 253.125 29.9111C252.93 29.9947 252.778 30.1081 252.67 30.251C252.562 30.3905 252.508 30.5648 252.508 30.774C252.508 31.0773 252.618 31.3092 252.838 31.4696C253.061 31.6265 253.343 31.7049 253.685 31.7049ZM266.316 22.3801V33.0908H264.051V24.5295H263.988L261.535 26.0671V24.0589L264.187 22.3801H266.316ZM269.094 33.2268C268.748 33.2268 268.452 33.1048 268.205 32.8607C267.961 32.6132 267.838 32.3168 267.838 31.9716C267.838 31.6299 267.961 31.3371 268.205 31.093C268.452 30.849 268.748 30.7269 269.094 30.7269C269.428 30.7269 269.721 30.849 269.972 31.093C270.223 31.3371 270.349 31.6299 270.349 31.9716C270.349 32.2017 270.29 32.4127 270.171 32.6044C270.056 32.7927 269.904 32.9444 269.716 33.0594C269.528 33.171 269.32 33.2268 269.094 33.2268ZM275.41 33.3262C274.51 33.3227 273.736 33.1013 273.088 32.662C272.443 32.2227 271.946 31.5864 271.597 30.7531C271.252 29.9198 271.081 28.9174 271.085 27.7459C271.085 26.5779 271.257 25.5825 271.602 24.7597C271.951 23.9368 272.448 23.311 273.093 22.8821C273.741 22.4498 274.514 22.2336 275.41 22.2336C276.306 22.2336 277.076 22.4498 277.721 22.8821C278.37 23.3145 278.868 23.9421 279.217 24.7649C279.566 25.5842 279.738 26.5779 279.735 27.7459C279.735 28.9209 279.56 29.925 279.212 30.7583C278.867 31.5916 278.372 32.2279 277.727 32.6672C277.081 33.1065 276.309 33.3262 275.41 33.3262ZM275.41 31.4486C276.023 31.4486 276.513 31.1401 276.879 30.523C277.245 29.9058 277.427 28.9802 277.423 27.7459C277.423 26.9335 277.339 26.2571 277.172 25.7167C277.008 25.1763 276.775 24.7701 276.471 24.4982C276.171 24.2262 275.818 24.0902 275.41 24.0902C274.8 24.0902 274.311 24.3953 273.945 25.0055C273.579 25.6156 273.394 26.5291 273.391 27.7459C273.391 28.5687 273.473 29.2556 273.637 29.8065C273.804 30.3539 274.039 30.7653 274.343 31.0407C274.646 31.3127 275.002 31.4486 275.41 31.4486Z" fill="#5D5A88"/>
</svg>
