<svg width="629" height="342" viewBox="0 0 629 342" fill="none" xmlns="http://www.w3.org/2000/svg">
<rect x="0.398926" y="58.4763" width="373.946" height="283.524" rx="15.4443" fill="#F2F1FA"/>
<path d="M171.438 242.625H169C149.5 242.625 139.75 237.75 139.75 213.375V189C139.75 169.5 149.5 159.75 169 159.75H208C227.5 159.75 237.25 169.5 237.25 189V213.375C237.25 232.875 227.5 242.625 208 242.625H205.562C204.051 242.625 202.589 243.356 201.662 244.575L194.35 254.325C191.132 258.615 185.868 258.615 182.65 254.325L175.338 244.575C174.558 243.502 172.754 242.625 171.438 242.625Z" stroke="#D4D2E3" stroke-width="7.3125" stroke-miterlimit="10" stroke-linecap="round" stroke-linejoin="round"/>
<path d="M207.983 203.625H208.027" stroke="#D4D2E3" stroke-width="9.75" stroke-linecap="round" stroke-linejoin="round"/>
<path d="M188.478 203.625H188.522" stroke="#D4D2E3" stroke-width="9.75" stroke-linecap="round" stroke-linejoin="round"/>
<path d="M168.973 203.625H169.017" stroke="#D4D2E3" stroke-width="9.75" stroke-linecap="round" stroke-linejoin="round"/>
<rect x="254.521" width="373.946" height="283.524" rx="15.4443" fill="#F9F9FF"/>
<path d="M428.22 136.915C427.77 136.87 427.23 136.87 426.735 136.915C416.025 136.555 407.52 127.78 407.52 116.98C407.52 105.955 416.43 97 427.5 97C438.525 97 447.48 105.955 447.48 116.98C447.435 127.78 438.93 136.555 428.22 136.915Z" stroke="#D4D2E3" stroke-width="6.75" stroke-linecap="round" stroke-linejoin="round"/>
<path d="M460.845 106C469.575 106 476.595 113.065 476.595 121.75C476.595 130.255 469.845 137.185 461.43 137.5C461.07 137.455 460.665 137.455 460.26 137.5" stroke="#D4D2E3" stroke-width="6.75" stroke-linecap="round" stroke-linejoin="round"/>
<path d="M405.72 153.52C394.83 160.81 394.83 172.69 405.72 179.935C418.095 188.215 438.39 188.215 450.765 179.935C461.655 172.645 461.655 160.765 450.765 153.52C438.435 145.285 418.14 145.285 405.72 153.52Z" stroke="#D4D2E3" stroke-width="6.75" stroke-linecap="round" stroke-linejoin="round"/>
<path d="M469.53 178C472.77 177.325 475.83 176.02 478.35 174.085C485.37 168.82 485.37 160.135 478.35 154.87C475.875 152.98 472.86 151.72 469.665 151" stroke="#D4D2E3" stroke-width="6.75" stroke-linecap="round" stroke-linejoin="round"/>
</svg>
